<?xml version="1.0" standalone="no"?>
<!DOCTYPE svg PUBLIC "-//W3C//DTD SVG 1.1//EN" "http://www.w3.org/Graphics/SVG/1.1/DTD/svg11.dtd" >
<svg xmlns="http://www.w3.org/2000/svg" xmlns:xlink="http://www.w3.org/1999/xlink" version="1.1">
<metadata>
Created by FontForge 20161003 at Tue Jul  2 02:28:10 2019
 By www-data
(c) 2007 Robert Pfeffer, Hessen.
</metadata>
<defs>
<font id="Midjungards" horiz-adv-x="416" >
  <font-face 
    font-family="Midjungards"
    font-weight="400"
    font-style="italic"
    font-stretch="normal"
    units-per-em="1000"
    panose-1="1 0 5 6 8 0 0 2 0 3"
    ascent="800"
    descent="-200"
    x-height="463"
    bbox="-471.889 -436.488 896.083 816.13"
    underline-thickness="25"
    underline-position="-60"
    slope="-12"
    unicode-range="U+0021-1034A"
  />
<missing-glyph horiz-adv-x="1000" 
d="M259 362q-29 -29 -36 -21q-8 8 27 43q5 5 11 10.5t14 12.5q5 3 10 7t11 8q35 22 70 22h1q18 0 36 -9q3 -1 5 -2l4 -2q24 -16 34 -32q24 -42 34.5 -82t18.5 -79q8 -42 19 -82.5t39 -76.5q1 -2 8 -9q1 -5 9 -9q28 -25 57 -25q15 0 33 5q6 3 13 5.5t14 6.5q10 6 19.5 15.5
t17.5 19t14 18.5t9 14q10 15 22 27.5t28 22.5q28 18 12 -10q-8 -12 -23 -31.5t-37 -47.5q-44 -55 -106 -90q-11 -6 -21 -10.5t-20 -8.5q-21 -6 -40 -6q-33 0 -61 26q-4 3 -6.5 5t-3.5 3q-7 7 -8 9q-30 38 -41 79t-19 84q-3 15 -6.5 31t-7.5 33h-2q-6 3 -12 3q-3 0 -5.5 0.5
t-4.5 0.5q-25 1 -49 -10q0 -2 -1.5 -5t-1.5 -9q-7 -27 -6.5 -51t2.5 -46q3 -33 1 -66.5t-23 -78.5q-56 -124 -131 -214q-37 -45 -65 -77t-48 -53q-3 -4 -6.5 -7.5l-6.5 -6.5q-33 -35 -48 -35q-6 0 0 11t19 25q5 6 9.5 11t9.5 10q17 17 40 43t52 62q29 35 56.5 80t52.5 99
q16 39 17.5 69.5t-0.5 61.5q-1 23 -1.5 47.5t4.5 55.5q6 23 27 51t48 53q6 5 12 10.5t12 9.5q5 4 9.5 7t9.5 6h1l1 1q-2 -2 7 4q-4 8 -8.5 15.5t-8.5 16.5q-12 19 -33 30q-2 0 -4 1.5t-3 2.5q-19 8 -33 8h-1q-25 0 -42 -10z" />
    <glyph glyph-name=".notdef" horiz-adv-x="1000" 
d="M259 362q-29 -29 -36 -21q-8 8 27 43q5 5 11 10.5t14 12.5q5 3 10 7t11 8q35 22 70 22h1q18 0 36 -9q3 -1 5 -2l4 -2q24 -16 34 -32q24 -42 34.5 -82t18.5 -79q8 -42 19 -82.5t39 -76.5q1 -2 8 -9q1 -5 9 -9q28 -25 57 -25q15 0 33 5q6 3 13 5.5t14 6.5q10 6 19.5 15.5
t17.5 19t14 18.5t9 14q10 15 22 27.5t28 22.5q28 18 12 -10q-8 -12 -23 -31.5t-37 -47.5q-44 -55 -106 -90q-11 -6 -21 -10.5t-20 -8.5q-21 -6 -40 -6q-33 0 -61 26q-4 3 -6.5 5t-3.5 3q-7 7 -8 9q-30 38 -41 79t-19 84q-3 15 -6.5 31t-7.5 33h-2q-6 3 -12 3q-3 0 -5.5 0.5
t-4.5 0.5q-25 1 -49 -10q0 -2 -1.5 -5t-1.5 -9q-7 -27 -6.5 -51t2.5 -46q3 -33 1 -66.5t-23 -78.5q-56 -124 -131 -214q-37 -45 -65 -77t-48 -53q-3 -4 -6.5 -7.5l-6.5 -6.5q-33 -35 -48 -35q-6 0 0 11t19 25q5 6 9.5 11t9.5 10q17 17 40 43t52 62q29 35 56.5 80t52.5 99
q16 39 17.5 69.5t-0.5 61.5q-1 23 -1.5 47.5t4.5 55.5q6 23 27 51t48 53q6 5 12 10.5t12 9.5q5 4 9.5 7t9.5 6h1l1 1q-2 -2 7 4q-4 8 -8.5 15.5t-8.5 16.5q-12 19 -33 30q-2 0 -4 1.5t-3 2.5q-19 8 -33 8h-1q-25 0 -42 -10z" />
    <glyph glyph-name="NULL" horiz-adv-x="0" 
 />
    <glyph glyph-name="nonmarkingreturn" horiz-adv-x="1000" 
 />
    <glyph glyph-name="space" unicode="&#xa0;" horiz-adv-x="300" 
 />
    <glyph glyph-name="space" unicode=" " horiz-adv-x="300" 
 />
    <glyph glyph-name="u10330" unicode="&#x10330;" horiz-adv-x="498" 
d="M-2 362q-29 -29 -36 -21q-8 8 27 43q5 5 11 10.5t14 12.5q5 3 10 7t11 8q35 22 70 22h1q18 0 36 -9q3 -1 5 -2l4 -2q24 -16 34 -32q24 -42 34.5 -82t18.5 -79q8 -42 19 -82.5t39 -76.5q1 -2 8 -9q1 -5 9 -9q28 -25 57 -25q15 0 33 5q6 3 13 5.5t14 6.5q10 6 19.5 15.5
t17.5 19t14 18.5t9 14q10 15 22 27.5t28 22.5q28 18 12 -10q-8 -12 -23 -31.5t-37 -47.5q-44 -55 -106 -90q-11 -6 -21 -10.5t-20 -8.5q-21 -6 -40 -6q-33 0 -61 26q-4 3 -6.5 5t-3.5 3q-7 7 -8 9q-30 38 -41 79t-19 84q-3 15 -6.5 31t-7.5 33h-2q-6 3 -12 3q-3 0 -5.5 0.5
t-4.5 0.5q-25 1 -49 -10q0 -2 -1.5 -5t-1.5 -9q-7 -27 -6.5 -51t2.5 -46q3 -33 1 -66.5t-23 -78.5q-56 -124 -131 -214q-37 -45 -65 -77t-48 -53q-3 -4 -6.5 -7.5l-6.5 -6.5q-33 -35 -48 -35q-6 0 0 11t19 25q5 6 9.5 11t9.5 10q17 17 40 43t52 62q29 35 56.5 80t52.5 99
q16 39 17.5 69.5t-0.5 61.5q-1 23 -1.5 47.5t4.5 55.5q6 23 27 51t48 53q6 5 12 10.5t12 9.5q5 4 9.5 7t9.5 6h1l1 1q-2 -2 7 4q-4 8 -8.5 15.5t-8.5 16.5q-12 19 -33 30q-2 0 -4 1.5t-3 2.5q-19 8 -33 8h-1q-25 0 -42 -10z" />
    <glyph glyph-name="u10330" unicode="A" horiz-adv-x="498" 
d="M-2 362q-29 -29 -36 -21q-8 8 27 43q5 5 11 10.5t14 12.5q5 3 10 7t11 8q35 22 70 22h1q18 0 36 -9q3 -1 5 -2l4 -2q24 -16 34 -32q24 -42 34.5 -82t18.5 -79q8 -42 19 -82.5t39 -76.5q1 -2 8 -9q1 -5 9 -9q28 -25 57 -25q15 0 33 5q6 3 13 5.5t14 6.5q10 6 19.5 15.5
t17.5 19t14 18.5t9 14q10 15 22 27.5t28 22.5q28 18 12 -10q-8 -12 -23 -31.5t-37 -47.5q-44 -55 -106 -90q-11 -6 -21 -10.5t-20 -8.5q-21 -6 -40 -6q-33 0 -61 26q-4 3 -6.5 5t-3.5 3q-7 7 -8 9q-30 38 -41 79t-19 84q-3 15 -6.5 31t-7.5 33h-2q-6 3 -12 3q-3 0 -5.5 0.5
t-4.5 0.5q-25 1 -49 -10q0 -2 -1.5 -5t-1.5 -9q-7 -27 -6.5 -51t2.5 -46q3 -33 1 -66.5t-23 -78.5q-56 -124 -131 -214q-37 -45 -65 -77t-48 -53q-3 -4 -6.5 -7.5l-6.5 -6.5q-33 -35 -48 -35q-6 0 0 11t19 25q5 6 9.5 11t9.5 10q17 17 40 43t52 62q29 35 56.5 80t52.5 99
q16 39 17.5 69.5t-0.5 61.5q-1 23 -1.5 47.5t4.5 55.5q6 23 27 51t48 53q6 5 12 10.5t12 9.5q5 4 9.5 7t9.5 6h1l1 1q-2 -2 7 4q-4 8 -8.5 15.5t-8.5 16.5q-12 19 -33 30q-2 0 -4 1.5t-3 2.5q-19 8 -33 8h-1q-25 0 -42 -10z" />
    <glyph glyph-name="a" unicode="a" horiz-adv-x="498" 
d="M-2 362q-29 -29 -36 -21q-8 8 27 43q5 5 11 10.5t14 12.5q5 3 10 7t11 8q35 22 70 22h1q18 0 36 -9q3 -1 5 -2l4 -2q24 -16 34 -32q24 -42 34.5 -82t18.5 -79q8 -42 19 -82.5t39 -76.5q1 -2 8 -9q1 -5 9 -9q28 -25 57 -25q15 0 33 5q6 3 13 5.5t14 6.5q10 6 19.5 15.5
t17.5 19t14 18.5t9 14q10 15 22 27.5t28 22.5q28 18 12 -10q-8 -12 -23 -31.5t-37 -47.5q-44 -55 -106 -90q-11 -6 -21 -10.5t-20 -8.5q-21 -6 -40 -6q-33 0 -61 26q-4 3 -6.5 5t-3.5 3q-7 7 -8 9q-30 38 -41 79t-19 84q-3 15 -6.5 31t-7.5 33h-2q-6 3 -12 3q-3 0 -5.5 0.5
t-4.5 0.5q-25 1 -49 -10q0 -2 -1.5 -5t-1.5 -9q-7 -27 -6.5 -51t2.5 -46q3 -33 1 -66.5t-23 -78.5q-56 -124 -131 -214q-37 -45 -65 -77t-48 -53q-3 -4 -6.5 -7.5l-6.5 -6.5q-33 -35 -48 -35q-6 0 0 11t19 25q5 6 9.5 11t9.5 10q17 17 40 43t52 62q29 35 56.5 80t52.5 99
q16 39 17.5 69.5t-0.5 61.5q-1 23 -1.5 47.5t4.5 55.5q6 23 27 51t48 53q6 5 12 10.5t12 9.5q5 4 9.5 7t9.5 6h1l1 1q-2 -2 7 4q-4 8 -8.5 15.5t-8.5 16.5q-12 19 -33 30q-2 0 -4 1.5t-3 2.5q-19 8 -33 8h-1q-25 0 -42 -10z" />
    <glyph glyph-name="u10331" unicode="&#x10331;" horiz-adv-x="355" 
d="M384 628q3 -3 -5 -16t-22 -27q-35 -34 -43 -28v1q-3 1 -4.5 3t-3.5 4q-6 4 -8.5 6t-1.5 1q-23 16 -56 16q-37 0 -56 -51q-10 -25 -17 -47t-12 -42l-2 -10l-1 -2q-21 -73 -43 -139.5t-48 -129.5q1 0 1 -3q-1 -3 -1 -17q0 -42 26 -73q30 -33 69 -37q3 0 7.5 -0.5t9.5 -0.5
q53 0 66 19q7 14 9 19l3 9t4 16v2q0 3 0.5 7.5t0.5 9.5q0 41 -27 73q-29 31 -69 36q-3 1 -17 1q-4 0 -9.5 -0.5t-13.5 -1.5q0 -1 -1 -1h-4l-3 -1h-1q-20 -6 11 31q28 34 50 40v1h5h1q2 0 4 1q13 3 26 3q9 0 11 -1q1 1 3 1h2q2 0 7 0.5t12 1.5l10.5 3.5t6.5 3.5q4 0 8 28
q1 3 1 15q0 4 -2 14q-5 38 -36 59q-11 4 26 41q34 36 44 29q30 -19 39 -62q0 -4 0.5 -8.5t0.5 -7.5q0 -4 -0.5 -8t-0.5 -8q-9 -66 -67 -118q8 -5 14.5 -10.5t11.5 -12.5q28 -32 28 -77v-10t-1 -9h1l-1 -1q-2 -11 -4 -19t-4 -13q-6 -17 -17 -35q-36 -60 -87.5 -95t-105.5 -35
h-18q-45 7 -73 38q-12 13 -17 29q-7 -13 -14 -25q-106 -195 -286 -392q-33 -35 -47 -35q-6 0 -0.5 11t19.5 25q152 169 249 344q51 94 89 195.5t71 219.5v2l3 10q11 38 27 81.5t38 92.5q45 98 156 98q34 0 61 -18l9 -6q3 -2 9 -8z" />
    <glyph glyph-name="u10331" unicode="B" horiz-adv-x="355" 
d="M384 628q3 -3 -5 -16t-22 -27q-35 -34 -43 -28v1q-3 1 -4.5 3t-3.5 4q-6 4 -8.5 6t-1.5 1q-23 16 -56 16q-37 0 -56 -51q-10 -25 -17 -47t-12 -42l-2 -10l-1 -2q-21 -73 -43 -139.5t-48 -129.5q1 0 1 -3q-1 -3 -1 -17q0 -42 26 -73q30 -33 69 -37q3 0 7.5 -0.5t9.5 -0.5
q53 0 66 19q7 14 9 19l3 9t4 16v2q0 3 0.5 7.5t0.5 9.5q0 41 -27 73q-29 31 -69 36q-3 1 -17 1q-4 0 -9.5 -0.5t-13.5 -1.5q0 -1 -1 -1h-4l-3 -1h-1q-20 -6 11 31q28 34 50 40v1h5h1q2 0 4 1q13 3 26 3q9 0 11 -1q1 1 3 1h2q2 0 7 0.5t12 1.5l10.5 3.5t6.5 3.5q4 0 8 28
q1 3 1 15q0 4 -2 14q-5 38 -36 59q-11 4 26 41q34 36 44 29q30 -19 39 -62q0 -4 0.5 -8.5t0.5 -7.5q0 -4 -0.5 -8t-0.5 -8q-9 -66 -67 -118q8 -5 14.5 -10.5t11.5 -12.5q28 -32 28 -77v-10t-1 -9h1l-1 -1q-2 -11 -4 -19t-4 -13q-6 -17 -17 -35q-36 -60 -87.5 -95t-105.5 -35
h-18q-45 7 -73 38q-12 13 -17 29q-7 -13 -14 -25q-106 -195 -286 -392q-33 -35 -47 -35q-6 0 -0.5 11t19.5 25q152 169 249 344q51 94 89 195.5t71 219.5v2l3 10q11 38 27 81.5t38 92.5q45 98 156 98q34 0 61 -18l9 -6q3 -2 9 -8z" />
    <glyph glyph-name="u10333" unicode="&#x10333;" horiz-adv-x="653" 
d="M570 628q3 -3 -5 -16t-22 -27q-35 -34 -43 -28v1q-3 1 -4.5 3t-3.5 4q-6 4 -8.5 6t-1.5 1q-23 16 -55 16q-29 0 -46.5 -23.5t-25.5 -59.5q-6 -31 -8.5 -61.5t-1.5 -60.5q2 -64 16 -129q1 -12 5 -20q2 0 2 -2v-1q0 3 2 -7q0 -4 1 -6v-1q21 -77 60 -129t93 -52q15 0 33 5
q19 7 27 12q10 6 19.5 15.5t18 19t14.5 18.5t9 14q7 12 22 26.5t27 23.5q30 19 13 -10q-8 -12 -23 -31.5t-37 -47.5q-43 -53 -107 -90q-13 -7 -23 -12t-18 -7q-21 -6 -40 -6q-42 0 -76.5 31.5t-58.5 83.5q-39 -54 -90 -84.5t-103 -30.5q-15 0 -20 1q-52 6 -83 42
q-31 34 -31 89q0 2 0.5 7.5t1.5 13.5v1q1 8 2.5 17t5.5 19q4 11 9 20.5t10 17.5q19 31 43.5 57.5t52 45t56.5 29t58 10.5q14 0 -17 -36q-33 -36 -47 -36q-66 0 -84 -29q-6 -9 -11 -23q-3 -9 -4.5 -16.5l-2.5 -12.5l-1 -1q-1 -3 -1 -19q0 -50 31 -84q28 -35 78 -42
q4 0 9 -0.5t10 -0.5q64 0 84 29l6 12t5 11q2 7 3.5 14.5t3.5 15.5v1q1 7 1.5 14.5t-0.5 16.5q-3 9 -5.5 18t-4.5 19q-7 29 -10.5 62t-5.5 69q0 70 11 125q19 92 71 155q51 62 136 62q34 0 61 -18l9 -6q2 -3 4 -4.5t5 -3.5z" />
    <glyph glyph-name="u10333" unicode="D" horiz-adv-x="653" 
d="M570 628q3 -3 -5 -16t-22 -27q-35 -34 -43 -28v1q-3 1 -4.5 3t-3.5 4q-6 4 -8.5 6t-1.5 1q-23 16 -55 16q-29 0 -46.5 -23.5t-25.5 -59.5q-6 -31 -8.5 -61.5t-1.5 -60.5q2 -64 16 -129q1 -12 5 -20q2 0 2 -2v-1q0 3 2 -7q0 -4 1 -6v-1q21 -77 60 -129t93 -52q15 0 33 5
q19 7 27 12q10 6 19.5 15.5t18 19t14.5 18.5t9 14q7 12 22 26.5t27 23.5q30 19 13 -10q-8 -12 -23 -31.5t-37 -47.5q-43 -53 -107 -90q-13 -7 -23 -12t-18 -7q-21 -6 -40 -6q-42 0 -76.5 31.5t-58.5 83.5q-39 -54 -90 -84.5t-103 -30.5q-15 0 -20 1q-52 6 -83 42
q-31 34 -31 89q0 2 0.5 7.5t1.5 13.5v1q1 8 2.5 17t5.5 19q4 11 9 20.5t10 17.5q19 31 43.5 57.5t52 45t56.5 29t58 10.5q14 0 -17 -36q-33 -36 -47 -36q-66 0 -84 -29q-6 -9 -11 -23q-3 -9 -4.5 -16.5l-2.5 -12.5l-1 -1q-1 -3 -1 -19q0 -50 31 -84q28 -35 78 -42
q4 0 9 -0.5t10 -0.5q64 0 84 29l6 12t5 11q2 7 3.5 14.5t3.5 15.5v1q1 7 1.5 14.5t-0.5 16.5q-3 9 -5.5 18t-4.5 19q-7 29 -10.5 62t-5.5 69q0 70 11 125q19 92 71 155q51 62 136 62q34 0 61 -18l9 -6q2 -3 4 -4.5t5 -3.5z" />
    <glyph glyph-name="d" unicode="d" horiz-adv-x="653" 
d="M570 628q3 -3 -5 -16t-22 -27q-35 -34 -43 -28v1q-3 1 -4.5 3t-3.5 4q-6 4 -8.5 6t-1.5 1q-23 16 -55 16q-29 0 -46.5 -23.5t-25.5 -59.5q-6 -31 -8.5 -61.5t-1.5 -60.5q2 -64 16 -129q1 -12 5 -20q2 0 2 -2v-1q0 3 2 -7q0 -4 1 -6v-1q21 -77 60 -129t93 -52q15 0 33 5
q19 7 27 12q10 6 19.5 15.5t18 19t14.5 18.5t9 14q7 12 22 26.5t27 23.5q30 19 13 -10q-8 -12 -23 -31.5t-37 -47.5q-43 -53 -107 -90q-13 -7 -23 -12t-18 -7q-21 -6 -40 -6q-42 0 -76.5 31.5t-58.5 83.5q-39 -54 -90 -84.5t-103 -30.5q-15 0 -20 1q-52 6 -83 42
q-31 34 -31 89q0 2 0.5 7.5t1.5 13.5v1q1 8 2.5 17t5.5 19q4 11 9 20.5t10 17.5q19 31 43.5 57.5t52 45t56.5 29t58 10.5q14 0 -17 -36q-33 -36 -47 -36q-66 0 -84 -29q-6 -9 -11 -23q-3 -9 -4.5 -16.5l-2.5 -12.5l-1 -1q-1 -3 -1 -19q0 -50 31 -84q28 -35 78 -42
q4 0 9 -0.5t10 -0.5q64 0 84 29l6 12t5 11q2 7 3.5 14.5t3.5 15.5v1q1 7 1.5 14.5t-0.5 16.5q-3 9 -5.5 18t-4.5 19q-7 29 -10.5 62t-5.5 69q0 70 11 125q19 92 71 155q51 62 136 62q34 0 61 -18l9 -6q2 -3 4 -4.5t5 -3.5z" />
    <glyph glyph-name="u10334" unicode="&#x10334;" horiz-adv-x="457" 
d="M472 404q4 -10 -29 -45q-36 -36 -41 -24q-3 3 -6 7t-5 8q-5 5 -8.5 8t-5.5 5q-37 34 -95 34q-29 0 -64 -11q-13 -5 -22.5 -9t-15.5 -7q-53 -27 -83 -87v-3q2 -11 22 -22q8 -5 19.5 -8.5t25.5 -5.5q21 -3 44.5 -3.5t47 2.5t45.5 10t40 19q31 19 9 -12q-18 -30 -49 -49
q-44 -28 -103 -37q-57 -7 -100 0q-16 2 -26 6q3 -46 29 -78q28 -40 82 -55q38 -11 78 -11q65 0 124 27l7 3.5l5 2.5q3 1 4 2q26 16 40 33q28 33 49 40q18 4 -11 -31q-57 -69 -124 -106l-9 -4.5t-12 -5.5q-61 -31 -138 -31q-48 0 -81 10q-57 20 -85 56q-30 40 -30 92
q0 27 10 63q4 12 8.5 24t11.5 25q0 -1 2 5q64 127 197 195q19 11 47 20q36 12 71 12q61 0 99 -34l14 -14q5 -7 8 -11t4 -5z" />
    <glyph glyph-name="u10334" unicode="E" horiz-adv-x="457" 
d="M472 404q4 -10 -29 -45q-36 -36 -41 -24q-3 3 -6 7t-5 8q-5 5 -8.5 8t-5.5 5q-37 34 -95 34q-29 0 -64 -11q-13 -5 -22.5 -9t-15.5 -7q-53 -27 -83 -87v-3q2 -11 22 -22q8 -5 19.5 -8.5t25.5 -5.5q21 -3 44.5 -3.5t47 2.5t45.5 10t40 19q31 19 9 -12q-18 -30 -49 -49
q-44 -28 -103 -37q-57 -7 -100 0q-16 2 -26 6q3 -46 29 -78q28 -40 82 -55q38 -11 78 -11q65 0 124 27l7 3.5l5 2.5q3 1 4 2q26 16 40 33q28 33 49 40q18 4 -11 -31q-57 -69 -124 -106l-9 -4.5t-12 -5.5q-61 -31 -138 -31q-48 0 -81 10q-57 20 -85 56q-30 40 -30 92
q0 27 10 63q4 12 8.5 24t11.5 25q0 -1 2 5q64 127 197 195q19 11 47 20q36 12 71 12q61 0 99 -34l14 -14q5 -7 8 -11t4 -5z" />
    <glyph glyph-name="e" unicode="e" horiz-adv-x="457" 
d="M472 404q4 -10 -29 -45q-36 -36 -41 -24q-3 3 -6 7t-5 8q-5 5 -8.5 8t-5.5 5q-37 34 -95 34q-29 0 -64 -11q-13 -5 -22.5 -9t-15.5 -7q-53 -27 -83 -87v-3q2 -11 22 -22q8 -5 19.5 -8.5t25.5 -5.5q21 -3 44.5 -3.5t47 2.5t45.5 10t40 19q31 19 9 -12q-18 -30 -49 -49
q-44 -28 -103 -37q-57 -7 -100 0q-16 2 -26 6q3 -46 29 -78q28 -40 82 -55q38 -11 78 -11q65 0 124 27l7 3.5l5 2.5q3 1 4 2q26 16 40 33q28 33 49 40q18 4 -11 -31q-57 -69 -124 -106l-9 -4.5t-12 -5.5q-61 -31 -138 -31q-48 0 -81 10q-57 20 -85 56q-30 40 -30 92
q0 27 10 63q4 12 8.5 24t11.5 25q0 -1 2 5q64 127 197 195q19 11 47 20q36 12 71 12q61 0 99 -34l14 -14q5 -7 8 -11t4 -5z" />
    <glyph glyph-name="u10338" unicode="&#x10338;" horiz-adv-x="546" 
d="M384 368q-10 6 26 42q33 35 43 28q12 -8 21 -18q10 -10 18 -22q43 -64 19 -152q-6 -26 -20 -53q-11 -23 -36 -57q-55 -75 -133 -123q-77 -47 -152 -47q-50 -87 -115 -173.5t-146 -176.5q-33 -35 -47 -35q-5 0 0.5 11t18.5 25q154 172 248 344l4 8l-8 2t-7 1
q-54 15 -86 56q-32 44 -32 100q0 27 9 59q2 8 5 16.5t6 17.5t8 18l10 18q67 117 189 180q25 10 1 -21q-30 -36 -51 -46q-53 -29 -75 -69q-2 -4 -5.5 -10.5t-7.5 -15.5q-5 -12 -10 -29q-4 -16 -5.5 -29t-1.5 -24q0 -56 30 -96q27 -35 70 -51q67 145 119 330v2l2 10
q11 38 27 81.5t38 92.5q45 98 156 98q34 0 61 -18l9 -6q2 -3 4 -4.5t5 -3.5q3 -3 -5 -16t-22 -27q-36 -36 -43 -28v1q-6 6 -8 7q-4 1 -10 7q-23 16 -56 16q-36 0 -55 -51q-10 -25 -17 -47t-12 -42l-3 -10v-2q-32 -112 -69 -211.5t-82 -187.5q5 0 11 -0.5t13 -0.5
q115 0 169 74q9 12 21 33q3 8 7 19t9 25q22 80 -19 142q-8 12 -17 21q-9 10 -21 18z" />
    <glyph glyph-name="u10338" unicode="&#xde;" horiz-adv-x="546" 
d="M384 368q-10 6 26 42q33 35 43 28q12 -8 21 -18q10 -10 18 -22q43 -64 19 -152q-6 -26 -20 -53q-11 -23 -36 -57q-55 -75 -133 -123q-77 -47 -152 -47q-50 -87 -115 -173.5t-146 -176.5q-33 -35 -47 -35q-5 0 0.5 11t18.5 25q154 172 248 344l4 8l-8 2t-7 1
q-54 15 -86 56q-32 44 -32 100q0 27 9 59q2 8 5 16.5t6 17.5t8 18l10 18q67 117 189 180q25 10 1 -21q-30 -36 -51 -46q-53 -29 -75 -69q-2 -4 -5.5 -10.5t-7.5 -15.5q-5 -12 -10 -29q-4 -16 -5.5 -29t-1.5 -24q0 -56 30 -96q27 -35 70 -51q67 145 119 330v2l2 10
q11 38 27 81.5t38 92.5q45 98 156 98q34 0 61 -18l9 -6q2 -3 4 -4.5t5 -3.5q3 -3 -5 -16t-22 -27q-36 -36 -43 -28v1q-6 6 -8 7q-4 1 -10 7q-23 16 -56 16q-36 0 -55 -51q-10 -25 -17 -47t-12 -42l-3 -10v-2q-32 -112 -69 -211.5t-82 -187.5q5 0 11 -0.5t13 -0.5
q115 0 169 74q9 12 21 33q3 8 7 19t9 25q22 80 -19 142q-8 12 -17 21q-9 10 -21 18z" />
    <glyph glyph-name="u10339" unicode="&#x10339;" 
d="M174 431q34 28 28 7q-9 -24 -43 -49l-3 -3q-2 -2 -4.5 -4t-4.5 -4l-9 -9q-38 -41 -54 -99q-12 -39 -12 -73q0 -56 28 -97q29 -43 77 -56q29 -8 54 -8q51 0 104 25q6 1 15 7q32 19 52 39q34 34 43 29q8 -8 -25 -42q-57 -57 -117 -91q-7 -3 -12 -5t-8 -4q-60 -28 -117 -28
q-27 0 -56 8q-53 17 -80 57q-29 41 -29 102q0 42 12 78q25 80 94 157q8 8 16.5 17t17.5 17q14 14 31 28l2 1v0z" />
    <glyph glyph-name="u10339" unicode="I" 
d="M174 431q34 28 28 7q-9 -24 -43 -49l-3 -3q-2 -2 -4.5 -4t-4.5 -4l-9 -9q-38 -41 -54 -99q-12 -39 -12 -73q0 -56 28 -97q29 -43 77 -56q29 -8 54 -8q51 0 104 25q6 1 15 7q32 19 52 39q34 34 43 29q8 -8 -25 -42q-57 -57 -117 -91q-7 -3 -12 -5t-8 -4q-60 -28 -117 -28
q-27 0 -56 8q-53 17 -80 57q-29 41 -29 102q0 42 12 78q25 80 94 157q8 8 16.5 17t17.5 17q14 14 31 28l2 1v0z" />
    <glyph glyph-name="Y" unicode="Y" horiz-adv-x="423" 
d="M718 623q7 -8 -28 -43t-42 -27q-3 1 -5 3l-4 4q-3 1 -5 3l-4 4q-23 16 -56 16q-39 0 -73.5 -19.5t-64.5 -52t-56.5 -75.5t-49.5 -90t-42.5 -95.5t-35.5 -92.5q-15 -40 -29 -75t-27 -62q-64 -134 -151 -236q-88 -103 -137 -155q-6 -6 -10.5 -11t-7.5 -8q-32 -35 -47 -35
t18 37l23 23q20 22 49 54t67 77q37 45 69 95t60 108q20 48 33 98t16 99q3 48 -7.5 96t-40.5 94q-11 16 -22 28q-45 45 -108 46q-58 1 -105 -29q-4 -2 -7 -4t-5 -4q-34 -37 -43 -28q-6 7 27 43q19 17 35 30.5t30 21.5q65 44 133 42q69 -5 112 -48l12 -14t11 -15
q45 -72 50 -157q62 143 155 265q93 121 234 121q32 0 60 -17q4 -3 10 -7q2 -1 9 -8z" />
    <glyph glyph-name="i" unicode="i" 
d="M174 431q34 28 28 7q-9 -24 -43 -49l-3 -3q-2 -2 -4.5 -4t-4.5 -4l-9 -9q-38 -41 -54 -99q-12 -39 -12 -73q0 -56 28 -97q29 -43 77 -56q29 -8 54 -8q51 0 104 25q6 1 15 7q32 19 52 39q34 34 43 29q8 -8 -25 -42q-57 -57 -117 -91q-7 -3 -12 -5t-8 -4q-60 -28 -117 -28
q-27 0 -56 8q-53 17 -80 57q-29 41 -29 102q0 42 12 78q25 80 94 157q8 8 16.5 17t17.5 17q14 14 31 28l2 1v0z" />
    <glyph glyph-name="y" unicode="y" horiz-adv-x="423" 
d="M718 623q7 -8 -28 -43t-42 -27q-3 1 -5 3l-4 4q-3 1 -5 3l-4 4q-23 16 -56 16q-39 0 -73.5 -19.5t-64.5 -52t-56.5 -75.5t-49.5 -90t-42.5 -95.5t-35.5 -92.5q-15 -40 -29 -75t-27 -62q-64 -134 -151 -236q-88 -103 -137 -155q-6 -6 -10.5 -11t-7.5 -8q-32 -35 -47 -35
t18 37l23 23q20 22 49 54t67 77q37 45 69 95t60 108q20 48 33 98t16 99q3 48 -7.5 96t-40.5 94q-11 16 -22 28q-45 45 -108 46q-58 1 -105 -29q-4 -2 -7 -4t-5 -4q-34 -37 -43 -28q-6 7 27 43q19 17 35 30.5t30 21.5q65 44 133 42q69 -5 112 -48l12 -14t11 -15
q45 -72 50 -157q62 143 155 265q93 121 234 121q32 0 60 -17q4 -3 10 -7q2 -1 9 -8z" />
    <glyph glyph-name="u1033A" unicode="&#x1033a;" horiz-adv-x="457" 
d="M260 362q-2 11 33 46q37 33 39 21v-1q3 -14 3 -39q-2 -11 -4.5 -21.5t-5.5 -19.5q-24 -71 -83 -127q-60 -57 -122 -74q7 -31 31 -60q40 -46 104 -50q3 0 7.5 -0.5t10.5 -0.5q50 0 103 25q6 1 15 7q32 19 52 39q33 33 44 29q8 -8 -26 -42q-54 -55 -116 -91q-6 -3 -11 -4.5
t-10 -4.5q-60 -28 -117 -28h-17q-69 6 -109 51q-38 43 -39 105q-13 -30 -27 -58.5t-28 -55.5q-55 -100 -126 -197.5t-161 -194.5q-33 -35 -47 -35q-6 0 -0.5 11t19.5 25q78 87 139.5 170t109.5 174q51 94 89.5 195.5t70.5 219.5q0 2 1 2l2 10q21 76 66 174t156 98
q33 0 60 -18q2 -1 4.5 -3t5.5 -3q3 -5 8 -8q3 -3 -5 -16t-22 -27q-35 -33 -43 -28v1q-3 1 -4.5 3t-3.5 4q-6 4 -8.5 6t-1.5 1q-23 16 -56 16q-36 0 -55 -51q-10 -25 -17 -47t-12 -42l-3 -10l-1 -2q-31 -109 -63 -200q21 -23 59 -23h14q3 0 7 1l8 2q58 16 78 75q7 15 7 34
q1 8 0.5 17t-2.5 19v1v0z" />
    <glyph glyph-name="u1033A" unicode="K" horiz-adv-x="457" 
d="M260 362q-2 11 33 46q37 33 39 21v-1q3 -14 3 -39q-2 -11 -4.5 -21.5t-5.5 -19.5q-24 -71 -83 -127q-60 -57 -122 -74q7 -31 31 -60q40 -46 104 -50q3 0 7.5 -0.5t10.5 -0.5q50 0 103 25q6 1 15 7q32 19 52 39q33 33 44 29q8 -8 -26 -42q-54 -55 -116 -91q-6 -3 -11 -4.5
t-10 -4.5q-60 -28 -117 -28h-17q-69 6 -109 51q-38 43 -39 105q-13 -30 -27 -58.5t-28 -55.5q-55 -100 -126 -197.5t-161 -194.5q-33 -35 -47 -35q-6 0 -0.5 11t19.5 25q78 87 139.5 170t109.5 174q51 94 89.5 195.5t70.5 219.5q0 2 1 2l2 10q21 76 66 174t156 98
q33 0 60 -18q2 -1 4.5 -3t5.5 -3q3 -5 8 -8q3 -3 -5 -16t-22 -27q-35 -33 -43 -28v1q-3 1 -4.5 3t-3.5 4q-6 4 -8.5 6t-1.5 1q-23 16 -56 16q-36 0 -55 -51q-10 -25 -17 -47t-12 -42l-3 -10l-1 -2q-31 -109 -63 -200q21 -23 59 -23h14q3 0 7 1l8 2q58 16 78 75q7 15 7 34
q1 8 0.5 17t-2.5 19v1v0z" />
    <glyph glyph-name="C" unicode="C" 
d="M96 355q-18 0 -36.5 1.5t-36.5 3.5q-12 1 20 38q34 35 46 34q123 -13 199 0q66 11 74 19q31 35 49 41q8 2 4.5 -7.5t-15.5 -23.5q-71 -84 -175 -101q-45 -8 -99 -6q-5 -7 -6 -9q-26 -38 -36 -75q-12 -39 -12 -73q0 -56 28 -97q29 -43 77 -56q29 -8 54 -8q57 0 114 30
q6 1 15 9q29 16 50 40q12 15 26 27t23 14q18 4 -11 -31q-62 -73 -129 -113q-10 -7 -23 -12q-67 -34 -130 -34q-27 0 -56 8q-53 17 -80 57q-30 42 -30 102q0 40 13 78q15 50 50 100q3 5 7 10t8 11q2 4 6.5 9t9.5 11v1z" />
    <glyph glyph-name="k" unicode="k" horiz-adv-x="457" 
d="M260 362q-2 11 33 46q37 33 39 21v-1q3 -14 3 -39q-2 -11 -4.5 -21.5t-5.5 -19.5q-24 -71 -83 -127q-60 -57 -122 -74q7 -31 31 -60q40 -46 104 -50q3 0 7.5 -0.5t10.5 -0.5q50 0 103 25q6 1 15 7q32 19 52 39q33 33 44 29q8 -8 -26 -42q-54 -55 -116 -91q-6 -3 -11 -4.5
t-10 -4.5q-60 -28 -117 -28h-17q-69 6 -109 51q-38 43 -39 105q-13 -30 -27 -58.5t-28 -55.5q-55 -100 -126 -197.5t-161 -194.5q-33 -35 -47 -35q-6 0 -0.5 11t19.5 25q78 87 139.5 170t109.5 174q51 94 89.5 195.5t70.5 219.5q0 2 1 2l2 10q21 76 66 174t156 98
q33 0 60 -18q2 -1 4.5 -3t5.5 -3q3 -5 8 -8q3 -3 -5 -16t-22 -27q-35 -33 -43 -28v1q-3 1 -4.5 3t-3.5 4q-6 4 -8.5 6t-1.5 1q-23 16 -56 16q-36 0 -55 -51q-10 -25 -17 -47t-12 -42l-3 -10l-1 -2q-31 -109 -63 -200q21 -23 59 -23h14q3 0 7 1l8 2q58 16 78 75q7 15 7 34
q1 8 0.5 17t-2.5 19v1v0z" />
    <glyph glyph-name="c" unicode="c" 
d="M96 355q-18 0 -36.5 1.5t-36.5 3.5q-12 1 20 38q34 35 46 34q123 -13 199 0q66 11 74 19q31 35 49 41q8 2 4.5 -7.5t-15.5 -23.5q-71 -84 -175 -101q-45 -8 -99 -6q-5 -7 -6 -9q-26 -38 -36 -75q-12 -39 -12 -73q0 -56 28 -97q29 -43 77 -56q29 -8 54 -8q57 0 114 30
q6 1 15 9q29 16 50 40q12 15 26 27t23 14q18 4 -11 -31q-62 -73 -129 -113q-10 -7 -23 -12q-67 -34 -130 -34q-27 0 -56 8q-53 17 -80 57q-30 42 -30 102q0 40 13 78q15 50 50 100q3 5 7 10t8 11q2 4 6.5 9t9.5 11v1z" />
    <glyph glyph-name="u1033B" unicode="&#x1033b;" horiz-adv-x="472" 
d="M-26 362q-30 -27 -36 -21q-8 8 28 43q5 5 11.5 11t13.5 12q6 4 19 15h1q34 22 71 22q19 0 36 -9l4 -2l4 -2q22 -13 35 -32q24 -42 34.5 -82t18.5 -79q7 -42 18 -82.5t40 -76.5q1 -2 8 -9q4 -6 9 -9q28 -25 57 -25q15 0 33 5q20 8 26 12q10 6 20 15.5t18 19t14.5 18.5
t9.5 14q16 28 49 50q28 18 12 -10q-8 -12 -23 -31.5t-37 -47.5q-44 -55 -106 -90q-13 -7 -23.5 -12t-18.5 -7q-20 -6 -39 -6q-33 0 -62 26q-3 3 -5 4.5t-4 3.5q-5 4 -9 9q-29 38 -40 79t-19 84q-6 26 -12 53.5t-16 54.5l-3 -7q-24 -76 -77.5 -143t-128.5 -113
q-24 -16 -50 -26q-11 -5 -22.5 -9t-23.5 -8h-1q-20 -5 10 30q31 34 50 40l1 1q18 3 40 13q7 4 15.5 8.5t18.5 10.5q69 45 97 137v1q5 14 10.5 30t11.5 35q4 13 8.5 28.5t10.5 33.5q-5 5 -10.5 9t-12.5 9q-3 0 -4.5 1.5t-4.5 2.5q-19 8 -32 8h-1q-23 0 -42 -10z" />
    <glyph glyph-name="u1033B" unicode="L" horiz-adv-x="472" 
d="M-26 362q-30 -27 -36 -21q-8 8 28 43q5 5 11.5 11t13.5 12q6 4 19 15h1q34 22 71 22q19 0 36 -9l4 -2l4 -2q22 -13 35 -32q24 -42 34.5 -82t18.5 -79q7 -42 18 -82.5t40 -76.5q1 -2 8 -9q4 -6 9 -9q28 -25 57 -25q15 0 33 5q20 8 26 12q10 6 20 15.5t18 19t14.5 18.5
t9.5 14q16 28 49 50q28 18 12 -10q-8 -12 -23 -31.5t-37 -47.5q-44 -55 -106 -90q-13 -7 -23.5 -12t-18.5 -7q-20 -6 -39 -6q-33 0 -62 26q-3 3 -5 4.5t-4 3.5q-5 4 -9 9q-29 38 -40 79t-19 84q-6 26 -12 53.5t-16 54.5l-3 -7q-24 -76 -77.5 -143t-128.5 -113
q-24 -16 -50 -26q-11 -5 -22.5 -9t-23.5 -8h-1q-20 -5 10 30q31 34 50 40l1 1q18 3 40 13q7 4 15.5 8.5t18.5 10.5q69 45 97 137v1q5 14 10.5 30t11.5 35q4 13 8.5 28.5t10.5 33.5q-5 5 -10.5 9t-12.5 9q-3 0 -4.5 1.5t-4.5 2.5q-19 8 -32 8h-1q-23 0 -42 -10z" />
    <glyph glyph-name="l" unicode="l" horiz-adv-x="472" 
d="M-26 362q-30 -27 -36 -21q-8 8 28 43q5 5 11.5 11t13.5 12q6 4 19 15h1q34 22 71 22q19 0 36 -9l4 -2l4 -2q22 -13 35 -32q24 -42 34.5 -82t18.5 -79q7 -42 18 -82.5t40 -76.5q1 -2 8 -9q4 -6 9 -9q28 -25 57 -25q15 0 33 5q20 8 26 12q10 6 20 15.5t18 19t14.5 18.5
t9.5 14q16 28 49 50q28 18 12 -10q-8 -12 -23 -31.5t-37 -47.5q-44 -55 -106 -90q-13 -7 -23.5 -12t-18.5 -7q-20 -6 -39 -6q-33 0 -62 26q-3 3 -5 4.5t-4 3.5q-5 4 -9 9q-29 38 -40 79t-19 84q-6 26 -12 53.5t-16 54.5l-3 -7q-24 -76 -77.5 -143t-128.5 -113
q-24 -16 -50 -26q-11 -5 -22.5 -9t-23.5 -8h-1q-20 -5 10 30q31 34 50 40l1 1q18 3 40 13q7 4 15.5 8.5t18.5 10.5q69 45 97 137v1q5 14 10.5 30t11.5 35q4 13 8.5 28.5t10.5 33.5q-5 5 -10.5 9t-12.5 9q-3 0 -4.5 1.5t-4.5 2.5q-19 8 -32 8h-1q-23 0 -42 -10z" />
    <glyph glyph-name="u1033C" unicode="&#x1033c;" horiz-adv-x="435" 
d="M433 432q-26 -96 -60 -192q-18 -48 -39 -101.5t-47 -116.5l-1 -1q-56 -129 -144 -231q-45 -52 -80 -91t-61 -66q-7 -8 -12 -13t-7 -9q-33 -35 -48 -35q-14 0 19 37q4 5 12 13l20 20q42 45 114 129q72 83 119 193v1q26 63 47 115t39 100q9 26 17 50.5t16 49.5
q-28 -34 -65 -62q-44 -32 -78 -32q-32 1 -54 30q-16 19 -29 55l-3 -8q-24 -75 -77.5 -142t-128.5 -113q-24 -15 -50 -26q-11 -5 -22.5 -9t-23.5 -8h-1q-21 -5 10 31q33 34 50 39q0 1 1 1q18 3 40 13q7 4 15.5 8.5t18.5 10.5q69 45 97 137v1q8 20 14.5 40t12.5 40
q6 21 11.5 40.5t11.5 39.5q3 14 33 44q35 30 39 20q16 -100 52 -144q22 -28 49 -28q20 -2 37 11q24 19 68 106q13 25 47 50q28 22 21 3z" />
    <glyph glyph-name="u1033C" unicode="M" horiz-adv-x="435" 
d="M433 432q-26 -96 -60 -192q-18 -48 -39 -101.5t-47 -116.5l-1 -1q-56 -129 -144 -231q-45 -52 -80 -91t-61 -66q-7 -8 -12 -13t-7 -9q-33 -35 -48 -35q-14 0 19 37q4 5 12 13l20 20q42 45 114 129q72 83 119 193v1q26 63 47 115t39 100q9 26 17 50.5t16 49.5
q-28 -34 -65 -62q-44 -32 -78 -32q-32 1 -54 30q-16 19 -29 55l-3 -8q-24 -75 -77.5 -142t-128.5 -113q-24 -15 -50 -26q-11 -5 -22.5 -9t-23.5 -8h-1q-21 -5 10 31q33 34 50 39q0 1 1 1q18 3 40 13q7 4 15.5 8.5t18.5 10.5q69 45 97 137v1q8 20 14.5 40t12.5 40
q6 21 11.5 40.5t11.5 39.5q3 14 33 44q35 30 39 20q16 -100 52 -144q22 -28 49 -28q20 -2 37 11q24 19 68 106q13 25 47 50q28 22 21 3z" />
    <glyph glyph-name="m" unicode="m" horiz-adv-x="435" 
d="M433 432q-26 -96 -60 -192q-18 -48 -39 -101.5t-47 -116.5l-1 -1q-56 -129 -144 -231q-45 -52 -80 -91t-61 -66q-7 -8 -12 -13t-7 -9q-33 -35 -48 -35q-14 0 19 37q4 5 12 13l20 20q42 45 114 129q72 83 119 193v1q26 63 47 115t39 100q9 26 17 50.5t16 49.5
q-28 -34 -65 -62q-44 -32 -78 -32q-32 1 -54 30q-16 19 -29 55l-3 -8q-24 -75 -77.5 -142t-128.5 -113q-24 -15 -50 -26q-11 -5 -22.5 -9t-23.5 -8h-1q-21 -5 10 31q33 34 50 39q0 1 1 1q18 3 40 13q7 4 15.5 8.5t18.5 10.5q69 45 97 137v1q8 20 14.5 40t12.5 40
q6 21 11.5 40.5t11.5 39.5q3 14 33 44q35 30 39 20q16 -100 52 -144q22 -28 49 -28q20 -2 37 11q24 19 68 106q13 25 47 50q28 22 21 3z" />
    <glyph glyph-name="u1033D" unicode="&#x1033d;" horiz-adv-x="422" 
d="M87 369q1 14 33 43q33 33 39 23l96 -340q8 20 16 42t17 47q34 94 60 189l2 10q11 38 27 81.5t38 92.5q45 98 156 98h1q20 0 42 -8q6 -3 7 -3q20 -11 29 -21q7 -8 -28 -43t-42 -27q-10 10 -28 19q-2 0 -4 2l-1 1q-22 8 -41 8h-1q-36 0 -55 -51q-10 -25 -16.5 -47
t-11.5 -42l-3 -10q-15 -53 -30 -100.5t-31 -92.5q-18 -48 -38.5 -100t-46.5 -115q-2 -7 -10 -17t-21 -24q-37 -31 -40 -21l-90 316q-1 -4 -2 -7t-2 -5q-24 -75 -77.5 -142t-128.5 -113q-24 -15 -50 -26q-11 -5 -22.5 -9t-23.5 -8h-1q-21 -5 10 31q33 34 50 39q0 1 1 1
q18 3 40 13q7 4 15.5 8.5t18.5 10.5q69 45 97 137v1q8 20 14.5 40t12.5 40t11.5 39.5t11.5 39.5z" />
    <glyph glyph-name="u1033D" unicode="N" horiz-adv-x="422" 
d="M87 369q1 14 33 43q33 33 39 23l96 -340q8 20 16 42t17 47q34 94 60 189l2 10q11 38 27 81.5t38 92.5q45 98 156 98h1q20 0 42 -8q6 -3 7 -3q20 -11 29 -21q7 -8 -28 -43t-42 -27q-10 10 -28 19q-2 0 -4 2l-1 1q-22 8 -41 8h-1q-36 0 -55 -51q-10 -25 -16.5 -47
t-11.5 -42l-3 -10q-15 -53 -30 -100.5t-31 -92.5q-18 -48 -38.5 -100t-46.5 -115q-2 -7 -10 -17t-21 -24q-37 -31 -40 -21l-90 316q-1 -4 -2 -7t-2 -5q-24 -75 -77.5 -142t-128.5 -113q-24 -15 -50 -26q-11 -5 -22.5 -9t-23.5 -8h-1q-21 -5 10 31q33 34 50 39q0 1 1 1
q18 3 40 13q7 4 15.5 8.5t18.5 10.5q69 45 97 137v1q8 20 14.5 40t12.5 40t11.5 39.5t11.5 39.5z" />
    <glyph glyph-name="n" unicode="n" horiz-adv-x="422" 
d="M87 369q1 14 33 43q33 33 39 23l96 -340q8 20 16 42t17 47q34 94 60 189l2 10q11 38 27 81.5t38 92.5q45 98 156 98h1q20 0 42 -8q6 -3 7 -3q20 -11 29 -21q7 -8 -28 -43t-42 -27q-10 10 -28 19q-2 0 -4 2l-1 1q-22 8 -41 8h-1q-36 0 -55 -51q-10 -25 -16.5 -47
t-11.5 -42l-3 -10q-15 -53 -30 -100.5t-31 -92.5q-18 -48 -38.5 -100t-46.5 -115q-2 -7 -10 -17t-21 -24q-37 -31 -40 -21l-90 316q-1 -4 -2 -7t-2 -5q-24 -75 -77.5 -142t-128.5 -113q-24 -15 -50 -26q-11 -5 -22.5 -9t-23.5 -8h-1q-21 -5 10 31q33 34 50 39q0 1 1 1
q18 3 40 13q7 4 15.5 8.5t18.5 10.5q69 45 97 137v1q8 20 14.5 40t12.5 40t11.5 39.5t11.5 39.5z" />
    <glyph glyph-name="u1033E" unicode="&#x1033e;" horiz-adv-x="471" 
d="M308 157q-32 -27 -32 -14q0 60 80 83q13 4 30 0q14 -3 27 -16q30 -32 5 -95q-8 -20 -16.5 -42t-18.5 -45l-2 -6l-1 -1q-56 -129 -144 -231q-45 -52 -80 -91t-61 -66q-8 -8 -13.5 -14t-7.5 -8q-32 -35 -47 -35q-16 0 18 37q4 5 12 13l20 20q22 23 50.5 55t64.5 74
q72 83 119 193v1l3 5q8 21 14 35t14 34q-13 -11 -26.5 -21.5t-27.5 -18.5q-9 -3 -21 -11q-59 -31 -118 -31q-31 0 -51 7q-44 13 -72 51q-26 40 -26 92q0 35 11 71q12 39 33.5 75.5t50 68.5t62.5 58.5t72 46.5q10 5 22 10t26 10q38 13 71 13q58 0 99 -35q3 -3 6.5 -7t7.5 -7
q2 -4 5 -7.5t6 -8.5h1q6 -12 -30 -44q-34 -37 -40 -26h-1q-2 3 -4.5 7t-6.5 9t-7.5 8t-5.5 5q-38 33 -95 33h-1q-35 0 -64 -10q-10 -3 -19 -7.5t-18 -7.5q-73 -40 -100 -125q-10 -31 -10 -64q0 -53 26 -88q22 -36 69 -51q21 -6 48 -6q50 0 102 26q5 4 8.5 5.5t4.5 2.5
q14 6 27 19q6 32 -13 56q-11 11 -25 15q-3 0 -5.5 0.5t-4.5 0.5z" />
    <glyph glyph-name="u1033E" unicode="J" horiz-adv-x="471" 
d="M308 157q-32 -27 -32 -14q0 60 80 83q13 4 30 0q14 -3 27 -16q30 -32 5 -95q-8 -20 -16.5 -42t-18.5 -45l-2 -6l-1 -1q-56 -129 -144 -231q-45 -52 -80 -91t-61 -66q-8 -8 -13.5 -14t-7.5 -8q-32 -35 -47 -35q-16 0 18 37q4 5 12 13l20 20q22 23 50.5 55t64.5 74
q72 83 119 193v1l3 5q8 21 14 35t14 34q-13 -11 -26.5 -21.5t-27.5 -18.5q-9 -3 -21 -11q-59 -31 -118 -31q-31 0 -51 7q-44 13 -72 51q-26 40 -26 92q0 35 11 71q12 39 33.5 75.5t50 68.5t62.5 58.5t72 46.5q10 5 22 10t26 10q38 13 71 13q58 0 99 -35q3 -3 6.5 -7t7.5 -7
q2 -4 5 -7.5t6 -8.5h1q6 -12 -30 -44q-34 -37 -40 -26h-1q-2 3 -4.5 7t-6.5 9t-7.5 8t-5.5 5q-38 33 -95 33h-1q-35 0 -64 -10q-10 -3 -19 -7.5t-18 -7.5q-73 -40 -100 -125q-10 -31 -10 -64q0 -53 26 -88q22 -36 69 -51q21 -6 48 -6q50 0 102 26q5 4 8.5 5.5t4.5 2.5
q14 6 27 19q6 32 -13 56q-11 11 -25 15q-3 0 -5.5 0.5t-4.5 0.5z" />
    <glyph glyph-name="u1033F" unicode="&#x1033f;" horiz-adv-x="447" 
d="M-197 -31q-21 -5 10 31q33 34 50 39q0 1 1 1q18 3 40 13q9 4 18 9t17 10q68 44 96 137l1 1q7 21 13.5 57t4.5 68q-5 26 -12 41q-11 15 -30 15q-17 -2 -40 -17q-31 -20 -14 9q17 26 48 50q39 25 71 30q22 1 36 -17q7 -14 12 -45q1 -13 0.5 -24t-1.5 -21q37 48 79.5 77.5
t87.5 29.5q16 0 32 -4q40 -12 61 -51q19 -37 19 -90q0 -47 -13 -89q-27 -91 -66 -170.5t-87 -154.5q-51 -78 -110 -149.5t-125 -143.5q-29 -35 -46 -35q-15 0 18 37q57 63 108 125t96 128q45 69 80.5 143t61.5 161q12 48 12 82q0 49 -20 87q-20 37 -57 48q-9 4 -28 4
q-28 0 -49.5 -17.5t-36.5 -41.5q-4 -8 -9 -16.5t-9 -17.5t-8 -17.5t-7 -16.5q-1 -1 -1 -2q-2 -2 -3 -4.5t-3 -5.5q-54 -147 -201 -240q-10 -7 -22 -13t-28 -13q-11 -5 -22.5 -9t-23.5 -8h-1v0z" />
    <glyph glyph-name="u1033F" unicode="U" horiz-adv-x="447" 
d="M-197 -31q-21 -5 10 31q33 34 50 39q0 1 1 1q18 3 40 13q9 4 18 9t17 10q68 44 96 137l1 1q7 21 13.5 57t4.5 68q-5 26 -12 41q-11 15 -30 15q-17 -2 -40 -17q-31 -20 -14 9q17 26 48 50q39 25 71 30q22 1 36 -17q7 -14 12 -45q1 -13 0.5 -24t-1.5 -21q37 48 79.5 77.5
t87.5 29.5q16 0 32 -4q40 -12 61 -51q19 -37 19 -90q0 -47 -13 -89q-27 -91 -66 -170.5t-87 -154.5q-51 -78 -110 -149.5t-125 -143.5q-29 -35 -46 -35q-15 0 18 37q57 63 108 125t96 128q45 69 80.5 143t61.5 161q12 48 12 82q0 49 -20 87q-20 37 -57 48q-9 4 -28 4
q-28 0 -49.5 -17.5t-36.5 -41.5q-4 -8 -9 -16.5t-9 -17.5t-8 -17.5t-7 -16.5q-1 -1 -1 -2q-2 -2 -3 -4.5t-3 -5.5q-54 -147 -201 -240q-10 -7 -22 -13t-28 -13q-11 -5 -22.5 -9t-23.5 -8h-1v0z" />
    <glyph glyph-name="u" unicode="u" horiz-adv-x="447" 
d="M-197 -31q-21 -5 10 31q33 34 50 39q0 1 1 1q18 3 40 13q9 4 18 9t17 10q68 44 96 137l1 1q7 21 13.5 57t4.5 68q-5 26 -12 41q-11 15 -30 15q-17 -2 -40 -17q-31 -20 -14 9q17 26 48 50q39 25 71 30q22 1 36 -17q7 -14 12 -45q1 -13 0.5 -24t-1.5 -21q37 48 79.5 77.5
t87.5 29.5q16 0 32 -4q40 -12 61 -51q19 -37 19 -90q0 -47 -13 -89q-27 -91 -66 -170.5t-87 -154.5q-51 -78 -110 -149.5t-125 -143.5q-29 -35 -46 -35q-15 0 18 37q57 63 108 125t96 128q45 69 80.5 143t61.5 161q12 48 12 82q0 49 -20 87q-20 37 -57 48q-9 4 -28 4
q-28 0 -49.5 -17.5t-36.5 -41.5q-4 -8 -9 -16.5t-9 -17.5t-8 -17.5t-7 -16.5q-1 -1 -1 -2q-2 -2 -3 -4.5t-3 -5.5q-54 -147 -201 -240q-10 -7 -22 -13t-28 -13q-11 -5 -22.5 -9t-23.5 -8h-1v0z" />
    <glyph glyph-name="q" unicode="q" horiz-adv-x="450" 
d="M390 378q4 18 41 50q34 28 30 10q-21 -78 -44 -150t-51 -138q-2 -2 -3 -5v-2l-2 -2v-1q-30 -70 -64 -131q-55 -102 -126 -198t-164 -196q-34 -35 -46 -34q-15 2 20 37q78 87 139.5 170.5t110.5 174.5q4 9 9 16.5t9 16.5q-34 -25 -82 -30h-1q-17 -1 -33.5 0t-31.5 5
q-43 15 -70 51q-26 34 -30 87q-1 23 1.5 48.5t11.5 52.5q11 40 53 97q40 55 90 96q23 18 41 28q15 9 30 12q1 0 2 1q17 3 -12 -32q-33 -36 -50 -39q0 -1 -1 -1q-1 -1 -16 -6q-3 -2 -5.5 -4t-4.5 -3q-41 -33 -57 -91q-8 -25 -10.5 -48.5t-0.5 -45.5q5 -53 29 -83
q24 -36 67 -49q31 -9 61 -6q13 1 23.5 7.5t18.5 14t13 15.5t8 14q28 64 52 136.5t45 154.5z" />
    <glyph glyph-name="u10340" unicode="&#x10340;" horiz-adv-x="601" 
d="M-45 355q-12 1 19 38q34 35 46 34h4q17 -2 33 -4t32 -2q17 -2 33 -3t32 -1q84 -4 160 -1.5t148 11.5q17 2 -14 -34q-32 -35 -49 -38q-48 -6 -104 -9q1 1 0 -0.5t-4 -4.5q-27 -41 -36 -76q-12 -39 -12 -72q0 -58 27 -98q29 -41 78 -56q21 -7 54 -7q55 0 113 29q3 2 7 4
t9 5q13 7 25 17t24 23q31 36 49 41q21 5 -10 -31q-60 -69 -130 -113q-6 -4 -12 -6.5t-11 -5.5q-67 -34 -130 -34q-27 0 -56 8q-52 15 -80 57q-29 43 -29 102q0 41 13 77q7 25 19.5 50t29.5 51q8 12 16 22q3 3 6 7.5t7 9.5q-28 -2 -60 -2t-69 1l-1 -5l-24 -72
q-24 -75 -77.5 -142t-128.5 -113q-24 -15 -50 -26q-11 -5 -22.5 -9t-23.5 -8h-1q-21 -5 10 31q33 34 50 39q0 1 1 1q18 3 40 13q7 4 15.5 8.5t18.5 10.5q69 45 97 137v1q7 19 13 36.5t11 33.5t9.5 32.5t9.5 33.5q-30 1 -57 3q-18 1 -33.5 2.5t-31.5 3.5h-3v0z" />
    <glyph glyph-name="u10340" unicode="P" horiz-adv-x="601" 
d="M-45 355q-12 1 19 38q34 35 46 34h4q17 -2 33 -4t32 -2q17 -2 33 -3t32 -1q84 -4 160 -1.5t148 11.5q17 2 -14 -34q-32 -35 -49 -38q-48 -6 -104 -9q1 1 0 -0.5t-4 -4.5q-27 -41 -36 -76q-12 -39 -12 -72q0 -58 27 -98q29 -41 78 -56q21 -7 54 -7q55 0 113 29q3 2 7 4
t9 5q13 7 25 17t24 23q31 36 49 41q21 5 -10 -31q-60 -69 -130 -113q-6 -4 -12 -6.5t-11 -5.5q-67 -34 -130 -34q-27 0 -56 8q-52 15 -80 57q-29 43 -29 102q0 41 13 77q7 25 19.5 50t29.5 51q8 12 16 22q3 3 6 7.5t7 9.5q-28 -2 -60 -2t-69 1l-1 -5l-24 -72
q-24 -75 -77.5 -142t-128.5 -113q-24 -15 -50 -26q-11 -5 -22.5 -9t-23.5 -8h-1q-21 -5 10 31q33 34 50 39q0 1 1 1q18 3 40 13q7 4 15.5 8.5t18.5 10.5q69 45 97 137v1q7 19 13 36.5t11 33.5t9.5 32.5t9.5 33.5q-30 1 -57 3q-18 1 -33.5 2.5t-31.5 3.5h-3v0z" />
    <glyph glyph-name="p" unicode="p" horiz-adv-x="601" 
d="M-45 355q-12 1 19 38q34 35 46 34h4q17 -2 33 -4t32 -2q17 -2 33 -3t32 -1q84 -4 160 -1.5t148 11.5q17 2 -14 -34q-32 -35 -49 -38q-48 -6 -104 -9q1 1 0 -0.5t-4 -4.5q-27 -41 -36 -76q-12 -39 -12 -72q0 -58 27 -98q29 -41 78 -56q21 -7 54 -7q55 0 113 29q3 2 7 4
t9 5q13 7 25 17t24 23q31 36 49 41q21 5 -10 -31q-60 -69 -130 -113q-6 -4 -12 -6.5t-11 -5.5q-67 -34 -130 -34q-27 0 -56 8q-52 15 -80 57q-29 43 -29 102q0 41 13 77q7 25 19.5 50t29.5 51q8 12 16 22q3 3 6 7.5t7 9.5q-28 -2 -60 -2t-69 1l-1 -5l-24 -72
q-24 -75 -77.5 -142t-128.5 -113q-24 -15 -50 -26q-11 -5 -22.5 -9t-23.5 -8h-1q-21 -5 10 31q33 34 50 39q0 1 1 1q18 3 40 13q7 4 15.5 8.5t18.5 10.5q69 45 97 137v1q7 19 13 36.5t11 33.5t9.5 32.5t9.5 33.5q-30 1 -57 3q-18 1 -33.5 2.5t-31.5 3.5h-3v0z" />
    <glyph glyph-name="u10342" unicode="&#x10342;" horiz-adv-x="486" 
d="M80 373q5 20 41 50q35 30 30 10q-11 -39 -22.5 -77t-23.5 -74q2 2 4 0q76 -39 143 -24q31 6 45 17q18 19 25 59q14 67 -16 119q-10 17 -34 38q-47 34 -112 37q-69 4 -137 -31q-46 -28 -73 -67q-23 -34 -51 -47q-29 -17 -3 18q79 108 175 161q73 43 155 38q65 -4 115 -38
q13 -10 22 -20t15 -20q30 -56 16 -126q-17 -66 -69 -123q-68 -73 -135 -86q-27 -6 -49 -4q4 -23 12 -43.5t19 -37.5q40 -66 109 -70h13q53 0 104 24q6 1 15 7l2 2q31 18 49 37q36 34 44 28q10 -6 -25 -41q-55 -57 -115 -89h-1q-1 0 -1 -1q-10 -4 -20 -10q-62 -28 -117 -28
h-14q-72 7 -114 71q-38 62 -38 140q-16 -40 -36 -82t-43 -87q-103 -192 -286 -392q-32 -35 -47 -35t18 37q78 85 140 170.5t110 173.5q51 94 89.5 195t71.5 221z" />
    <glyph glyph-name="u10342" unicode="R" horiz-adv-x="486" 
d="M80 373q5 20 41 50q35 30 30 10q-11 -39 -22.5 -77t-23.5 -74q2 2 4 0q76 -39 143 -24q31 6 45 17q18 19 25 59q14 67 -16 119q-10 17 -34 38q-47 34 -112 37q-69 4 -137 -31q-46 -28 -73 -67q-23 -34 -51 -47q-29 -17 -3 18q79 108 175 161q73 43 155 38q65 -4 115 -38
q13 -10 22 -20t15 -20q30 -56 16 -126q-17 -66 -69 -123q-68 -73 -135 -86q-27 -6 -49 -4q4 -23 12 -43.5t19 -37.5q40 -66 109 -70h13q53 0 104 24q6 1 15 7l2 2q31 18 49 37q36 34 44 28q10 -6 -25 -41q-55 -57 -115 -89h-1q-1 0 -1 -1q-10 -4 -20 -10q-62 -28 -117 -28
h-14q-72 7 -114 71q-38 62 -38 140q-16 -40 -36 -82t-43 -87q-103 -192 -286 -392q-32 -35 -47 -35t18 37q78 85 140 170.5t110 173.5q51 94 89.5 195t71.5 221z" />
    <glyph glyph-name="u10343" unicode="&#x10343;" horiz-adv-x="494" 
d="M464 425q8 -8 -27 -43t-43 -27l-8 8q-3 3 -9 6q-29 17 -56 17q-36 0 -40 -4q-3 -3 0 -2t2 -4q-6 -19 2 -43q11 -35 55 -56l1 -1q8 -4 13 -6q15 -7 33 -17t40 -24q44 -27 44 -68q0 -38 -13 -68.5t-35.5 -55.5t-53 -43t-66.5 -30q-53 -19 -121 -8q-66 14 -112 51
q-46 39 -65 106.5t10 164.5q12 37 27 63q15 31 42 66q67 88 154 150q87 63 176 88q17 3 -11 -31q-32 -37 -50 -41q-64 -17 -123 -54.5t-95 -85.5q-14 -17 -28 -44q-15 -31 -21 -52q-15 -47 -16.5 -86t6.5 -71.5t24.5 -58t39.5 -44.5q41 -36 109 -50q60 -10 112 6
q37 10 39 64q0 38 -43 63q-22 13 -39.5 22.5t-31.5 16.5l-5 2.5t-8 3.5h-2q-46 22 -58 60q-8 26 -1 52q9 36 51 78q60 62 123 62q32 0 60 -17q2 -2 4 -3.5t5 -3.5q2 -3 4 -4.5t5 -3.5z" />
    <glyph glyph-name="u10343" unicode="S" horiz-adv-x="494" 
d="M464 425q8 -8 -27 -43t-43 -27l-8 8q-3 3 -9 6q-29 17 -56 17q-36 0 -40 -4q-3 -3 0 -2t2 -4q-6 -19 2 -43q11 -35 55 -56l1 -1q8 -4 13 -6q15 -7 33 -17t40 -24q44 -27 44 -68q0 -38 -13 -68.5t-35.5 -55.5t-53 -43t-66.5 -30q-53 -19 -121 -8q-66 14 -112 51
q-46 39 -65 106.5t10 164.5q12 37 27 63q15 31 42 66q67 88 154 150q87 63 176 88q17 3 -11 -31q-32 -37 -50 -41q-64 -17 -123 -54.5t-95 -85.5q-14 -17 -28 -44q-15 -31 -21 -52q-15 -47 -16.5 -86t6.5 -71.5t24.5 -58t39.5 -44.5q41 -36 109 -50q60 -10 112 6
q37 10 39 64q0 38 -43 63q-22 13 -39.5 22.5t-31.5 16.5l-5 2.5t-8 3.5h-2q-46 22 -58 60q-8 26 -1 52q9 36 51 78q60 62 123 62q32 0 60 -17q2 -2 4 -3.5t5 -3.5q2 -3 4 -4.5t5 -3.5z" />
    <glyph glyph-name="s" unicode="s" horiz-adv-x="494" 
d="M464 425q8 -8 -27 -43t-43 -27l-8 8q-3 3 -9 6q-29 17 -56 17q-36 0 -40 -4q-3 -3 0 -2t2 -4q-6 -19 2 -43q11 -35 55 -56l1 -1q8 -4 13 -6q15 -7 33 -17t40 -24q44 -27 44 -68q0 -38 -13 -68.5t-35.5 -55.5t-53 -43t-66.5 -30q-53 -19 -121 -8q-66 14 -112 51
q-46 39 -65 106.5t10 164.5q12 37 27 63q15 31 42 66q67 88 154 150q87 63 176 88q17 3 -11 -31q-32 -37 -50 -41q-64 -17 -123 -54.5t-95 -85.5q-14 -17 -28 -44q-15 -31 -21 -52q-15 -47 -16.5 -86t6.5 -71.5t24.5 -58t39.5 -44.5q41 -36 109 -50q60 -10 112 6
q37 10 39 64q0 38 -43 63q-22 13 -39.5 22.5t-31.5 16.5l-5 2.5t-8 3.5h-2q-46 22 -58 60q-8 26 -1 52q9 36 51 78q60 62 123 62q32 0 60 -17q2 -2 4 -3.5t5 -3.5q2 -3 4 -4.5t5 -3.5z" />
    <glyph glyph-name="u10344" unicode="&#x10344;" horiz-adv-x="421" 
d="M-156 355q-15 2 20 38q35 35 47 34h3q18 -2 34.5 -4t31.5 -2q17 -2 33.5 -3t32.5 -1q88 -4 167 -1.5t152 11.5q16 2 -15 -34q-32 -35 -49 -38q-42 -5 -86 -7.5t-92 -3.5l-3 -3q-26 -43 -36 -76q-12 -39 -12 -72q0 -57 28 -98q29 -43 77 -56q21 -7 54 -7q58 0 114 29l15 9
q24 13 50 40q12 15 26 27t23 14q18 4 -11 -31q-62 -73 -129 -113q-6 -4 -12 -6.5t-11 -5.5q-67 -34 -130 -34q-27 0 -56 8q-52 15 -80 57q-30 43 -30 102q0 41 13 77q13 49 50 101q3 6 7 11t8 11q3 3 6 7l6 8q-27 0 -54.5 0.5t-53.5 1.5q-18 1 -35 2t-33 2q-33 2 -67 6h-3v0
z" />
    <glyph glyph-name="u10344" unicode="T" horiz-adv-x="421" 
d="M-156 355q-15 2 20 38q35 35 47 34h3q18 -2 34.5 -4t31.5 -2q17 -2 33.5 -3t32.5 -1q88 -4 167 -1.5t152 11.5q16 2 -15 -34q-32 -35 -49 -38q-42 -5 -86 -7.5t-92 -3.5l-3 -3q-26 -43 -36 -76q-12 -39 -12 -72q0 -57 28 -98q29 -43 77 -56q21 -7 54 -7q58 0 114 29l15 9
q24 13 50 40q12 15 26 27t23 14q18 4 -11 -31q-62 -73 -129 -113q-6 -4 -12 -6.5t-11 -5.5q-67 -34 -130 -34q-27 0 -56 8q-52 15 -80 57q-30 43 -30 102q0 41 13 77q13 49 50 101q3 6 7 11t8 11q3 3 6 7l6 8q-27 0 -54.5 0.5t-53.5 1.5q-18 1 -35 2t-33 2q-33 2 -67 6h-3v0
z" />
    <glyph glyph-name="t" unicode="t" horiz-adv-x="421" 
d="M-156 355q-15 2 20 38q35 35 47 34h3q18 -2 34.5 -4t31.5 -2q17 -2 33.5 -3t32.5 -1q88 -4 167 -1.5t152 11.5q16 2 -15 -34q-32 -35 -49 -38q-42 -5 -86 -7.5t-92 -3.5l-3 -3q-26 -43 -36 -76q-12 -39 -12 -72q0 -57 28 -98q29 -43 77 -56q21 -7 54 -7q58 0 114 29l15 9
q24 13 50 40q12 15 26 27t23 14q18 4 -11 -31q-62 -73 -129 -113q-6 -4 -12 -6.5t-11 -5.5q-67 -34 -130 -34q-27 0 -56 8q-52 15 -80 57q-30 43 -30 102q0 41 13 77q13 49 50 101q3 6 7 11t8 11q3 3 6 7l6 8q-27 0 -54.5 0.5t-53.5 1.5q-18 1 -35 2t-33 2q-33 2 -67 6h-3v0
z" />
    <glyph glyph-name="V" unicode="V" horiz-adv-x="423" 
d="M718 623q7 -8 -28 -43t-42 -27q-3 1 -5 3l-4 4q-3 1 -5 3l-4 4q-23 16 -56 16q-39 0 -73.5 -19.5t-64.5 -52t-56.5 -75.5t-49.5 -90t-42.5 -95.5t-35.5 -92.5q-15 -40 -29 -75t-27 -62q-64 -134 -151 -236q-88 -103 -137 -155q-6 -6 -10.5 -11t-7.5 -8q-32 -35 -47 -35
t18 37l23 23q20 22 49 54t67 77q37 45 69 95t60 108q20 48 33 98t16 99q3 48 -7.5 96t-40.5 94q-11 16 -22 28q-45 45 -108 46q-58 1 -105 -29q-4 -2 -7 -4t-5 -4q-34 -37 -43 -28q-6 7 27 43q19 17 35 30.5t30 21.5q65 44 133 42q69 -5 112 -48l12 -14t11 -15
q45 -72 50 -157q62 143 155 265q93 121 234 121q32 0 60 -17q4 -3 10 -7q2 -1 9 -8z" />
    <glyph glyph-name="v" unicode="v" horiz-adv-x="423" 
d="M718 623q7 -8 -28 -43t-42 -27q-3 1 -5 3l-4 4q-3 1 -5 3l-4 4q-23 16 -56 16q-39 0 -73.5 -19.5t-64.5 -52t-56.5 -75.5t-49.5 -90t-42.5 -95.5t-35.5 -92.5q-15 -40 -29 -75t-27 -62q-64 -134 -151 -236q-88 -103 -137 -155q-6 -6 -10.5 -11t-7.5 -8q-32 -35 -47 -35
t18 37l23 23q20 22 49 54t67 77q37 45 69 95t60 108q20 48 33 98t16 99q3 48 -7.5 96t-40.5 94q-11 16 -22 28q-45 45 -108 46q-58 1 -105 -29q-4 -2 -7 -4t-5 -4q-34 -37 -43 -28q-6 7 27 43q19 17 35 30.5t30 21.5q65 44 133 42q69 -5 112 -48l12 -14t11 -15
q45 -72 50 -157q62 143 155 265q93 121 234 121q32 0 60 -17q4 -3 10 -7q2 -1 9 -8z" />
    <glyph glyph-name="u10346" unicode="&#x10346;" horiz-adv-x="434" 
d="M383 623q7 -8 -28 -43t-43 -27q-6 6 -8 7q-3 1 -5 3l-4 4q-25 16 -56 16q-37 0 -56 -51q-10 -25 -17 -47t-12 -42l-3 -10v-2q-6 -17 -10.5 -34t-9.5 -33q8 6 16.5 13t17.5 14q16 11 25 15q58 33 133 33q32 0 60 -17q6 -4 8.5 -6t1.5 -1q2 -3 4 -4.5t5 -3.5q6 -9 -28 -43
q-36 -36 -42 -27q-2 2 -4 3.5t-5 3.5q-3 1 -5 3l-4 4q-25 16 -57 16q-66 0 -113 -26q-4 -2 -6.5 -3.5t-4.5 -2.5q-5 -4 -10 -12.5t-12 -21.5q-11 -32 -20.5 -59.5t-19.5 -49.5q6 3 11 8q55 48 131 48q23 0 52 -9q46 -17 75 -53q30 -42 30 -90q0 -24 -11 -59q-7 -22 -42 -49
q-36 -28 -28 -8q9 27 9 50q0 47 -29 87q-29 38 -71 51q-24 9 -49 9q-59 0 -77 -15q-1 -1 -10.5 -16.5t-26.5 -46.5q-6 -11 -10 -16q-10 -21 -19.5 -41t-21.5 -39q-103 -192 -286 -392q-32 -35 -47 -35t18 37q78 85 140 170.5t110 173.5q37 66 66 137t56 149v1l1 2
q10 28 19 59.5t18 66.5l1 1l3 10q19 74 65 174q45 98 156 98q32 0 60 -17l6 -4.5t3 -2.5q2 -1 9 -8h1v0z" />
    <glyph glyph-name="u10346" unicode="F" horiz-adv-x="434" 
d="M383 623q7 -8 -28 -43t-43 -27q-6 6 -8 7q-3 1 -5 3l-4 4q-25 16 -56 16q-37 0 -56 -51q-10 -25 -17 -47t-12 -42l-3 -10v-2q-6 -17 -10.5 -34t-9.5 -33q8 6 16.5 13t17.5 14q16 11 25 15q58 33 133 33q32 0 60 -17q6 -4 8.5 -6t1.5 -1q2 -3 4 -4.5t5 -3.5q6 -9 -28 -43
q-36 -36 -42 -27q-2 2 -4 3.5t-5 3.5q-3 1 -5 3l-4 4q-25 16 -57 16q-66 0 -113 -26q-4 -2 -6.5 -3.5t-4.5 -2.5q-5 -4 -10 -12.5t-12 -21.5q-11 -32 -20.5 -59.5t-19.5 -49.5q6 3 11 8q55 48 131 48q23 0 52 -9q46 -17 75 -53q30 -42 30 -90q0 -24 -11 -59q-7 -22 -42 -49
q-36 -28 -28 -8q9 27 9 50q0 47 -29 87q-29 38 -71 51q-24 9 -49 9q-59 0 -77 -15q-1 -1 -10.5 -16.5t-26.5 -46.5q-6 -11 -10 -16q-10 -21 -19.5 -41t-21.5 -39q-103 -192 -286 -392q-32 -35 -47 -35t18 37q78 85 140 170.5t110 173.5q37 66 66 137t56 149v1l1 2
q10 28 19 59.5t18 66.5l1 1l3 10q19 74 65 174q45 98 156 98q32 0 60 -17l6 -4.5t3 -2.5q2 -1 9 -8h1v0z" />
    <glyph glyph-name="u10347" unicode="&#x10347;" horiz-adv-x="358" 
d="M522 623q8 -8 -27 -43q-36 -34 -43 -27q-3 1 -5 3l-4 4q-6 6 -9 7q-22 16 -55 16q-101 0 -172 -113t-120 -235v-2q8 -42 19 -82.5t40 -76.5q1 -2 8 -9q5 -8 8 -9q28 -24 57 -24q18 0 33 5q10 2 27 11q10 6 20 15.5t18 19t14.5 18.5t9.5 14q16 28 49 50q28 18 12 -10
q-8 -12 -23 -31.5t-37 -47.5q-44 -55 -106 -90q-13 -7 -23.5 -12t-18.5 -7q-20 -6 -40 -6q-33 0 -61 26q-5 1 -9 9q-3 2 -9 8q-29 38 -43 90q-9 -21 -17 -39t-15 -34q-64 -134 -151 -236q-88 -103 -137 -155q-5 -6 -9.5 -11t-7.5 -8q-32 -35 -48 -35q-14 0 19 37
q7 8 12 13.5t10 9.5q20 22 49 54t67 77q73 88 129 204q12 25 25.5 58.5t28.5 72.5q8 17 13.5 35t13.5 36q-7 37 -16.5 75t-33.5 77q-11 19 -32 30q-5 1 -6 3q-1 1 -2 1q-18 8 -33 8q-25 0 -44 -10q-28 -28 -36 -20q-6 8 28 42h1q5 7 11.5 12.5t13.5 10.5q3 3 20 15
q37 22 71 22q19 0 37 -9q3 0 7 -4q23 -13 34 -32q22 -36 37 -88q63 135 152 242t220 107q32 0 60 -17q6 -3 10 -7q2 -1 9 -8z" />
    <glyph glyph-name="u10347" unicode="X" horiz-adv-x="358" 
d="M522 623q8 -8 -27 -43q-36 -34 -43 -27q-3 1 -5 3l-4 4q-6 6 -9 7q-22 16 -55 16q-101 0 -172 -113t-120 -235v-2q8 -42 19 -82.5t40 -76.5q1 -2 8 -9q5 -8 8 -9q28 -24 57 -24q18 0 33 5q10 2 27 11q10 6 20 15.5t18 19t14.5 18.5t9.5 14q16 28 49 50q28 18 12 -10
q-8 -12 -23 -31.5t-37 -47.5q-44 -55 -106 -90q-13 -7 -23.5 -12t-18.5 -7q-20 -6 -40 -6q-33 0 -61 26q-5 1 -9 9q-3 2 -9 8q-29 38 -43 90q-9 -21 -17 -39t-15 -34q-64 -134 -151 -236q-88 -103 -137 -155q-5 -6 -9.5 -11t-7.5 -8q-32 -35 -48 -35q-14 0 19 37
q7 8 12 13.5t10 9.5q20 22 49 54t67 77q73 88 129 204q12 25 25.5 58.5t28.5 72.5q8 17 13.5 35t13.5 36q-7 37 -16.5 75t-33.5 77q-11 19 -32 30q-5 1 -6 3q-1 1 -2 1q-18 8 -33 8q-25 0 -44 -10q-28 -28 -36 -20q-6 8 28 42h1q5 7 11.5 12.5t13.5 10.5q3 3 20 15
q37 22 71 22q19 0 37 -9q3 0 7 -4q23 -13 34 -32q22 -36 37 -88q63 135 152 242t220 107q32 0 60 -17q6 -3 10 -7q2 -1 9 -8z" />
    <glyph glyph-name="x" unicode="x" horiz-adv-x="358" 
d="M522 623q8 -8 -27 -43q-36 -34 -43 -27q-3 1 -5 3l-4 4q-6 6 -9 7q-22 16 -55 16q-101 0 -172 -113t-120 -235v-2q8 -42 19 -82.5t40 -76.5q1 -2 8 -9q5 -8 8 -9q28 -24 57 -24q18 0 33 5q10 2 27 11q10 6 20 15.5t18 19t14.5 18.5t9.5 14q16 28 49 50q28 18 12 -10
q-8 -12 -23 -31.5t-37 -47.5q-44 -55 -106 -90q-13 -7 -23.5 -12t-18.5 -7q-20 -6 -40 -6q-33 0 -61 26q-5 1 -9 9q-3 2 -9 8q-29 38 -43 90q-9 -21 -17 -39t-15 -34q-64 -134 -151 -236q-88 -103 -137 -155q-5 -6 -9.5 -11t-7.5 -8q-32 -35 -48 -35q-14 0 19 37
q7 8 12 13.5t10 9.5q20 22 49 54t67 77q73 88 129 204q12 25 25.5 58.5t28.5 72.5q8 17 13.5 35t13.5 36q-7 37 -16.5 75t-33.5 77q-11 19 -32 30q-5 1 -6 3q-1 1 -2 1q-18 8 -33 8q-25 0 -44 -10q-28 -28 -36 -20q-6 8 28 42h1q5 7 11.5 12.5t13.5 10.5q3 3 20 15
q37 22 71 22q19 0 37 -9q3 0 7 -4q23 -13 34 -32q22 -36 37 -88q63 135 152 242t220 107q32 0 60 -17q6 -3 10 -7q2 -1 9 -8z" />
    <glyph glyph-name="u10348" unicode="&#x10348;" horiz-adv-x="526" 
d="M402 329q-2 3 -4.5 7t-6.5 9q-4 4 -7 7.5t-6 5.5q-38 33 -96 33q-35 0 -64 -10q-10 -3 -19.5 -7.5t-18.5 -7.5q-72 -41 -99 -125q-10 -31 -10 -64q0 -54 25 -88q22 -36 70 -51q21 -6 47 -6q36 0 65 10q23 8 37 16q72 37 100 124q2 8 3 13.5t2 8.5q1 5 1.5 10.5t2.5 11.5
q6 60 -22 103zM472 399q29 -49 23 -108q-1 -6 -2.5 -12.5t-1.5 -12.5l-3.5 -14t-3.5 -11q-12 -39 -33.5 -75.5t-49.5 -68.5t-62.5 -59t-71.5 -46q-14 -7 -25.5 -11.5t-22.5 -8.5q-39 -11 -70 -11t-52 7q-42 13 -72 51q-25 40 -25 92q0 35 11 71q12 39 33.5 75.5t50 68.5
t62.5 58.5t72 46.5q10 5 22 10t26 10q38 13 71 13q57 0 98 -35q2 -2 6 -5.5t9 -8.5q2 -4 5 -7.5t6 -8.5zM156 212q-10 8 28 43q34 34 42 27l12 -9q2 -2 5 -4.5t8 -6.5q43 -27 81 -27q13 0 -18 -36q-35 -35 -47 -35q-38 0 -85 29q-10 3 -14 9q-4 3 -7 5.5t-5 4.5z" />
    <glyph glyph-name="u10348" unicode="&#x1f6;" horiz-adv-x="526" 
d="M402 329q-2 3 -4.5 7t-6.5 9q-4 4 -7 7.5t-6 5.5q-38 33 -96 33q-35 0 -64 -10q-10 -3 -19.5 -7.5t-18.5 -7.5q-72 -41 -99 -125q-10 -31 -10 -64q0 -54 25 -88q22 -36 70 -51q21 -6 47 -6q36 0 65 10q23 8 37 16q72 37 100 124q2 8 3 13.5t2 8.5q1 5 1.5 10.5t2.5 11.5
q6 60 -22 103zM472 399q29 -49 23 -108q-1 -6 -2.5 -12.5t-1.5 -12.5l-3.5 -14t-3.5 -11q-12 -39 -33.5 -75.5t-49.5 -68.5t-62.5 -59t-71.5 -46q-14 -7 -25.5 -11.5t-22.5 -8.5q-39 -11 -70 -11t-52 7q-42 13 -72 51q-25 40 -25 92q0 35 11 71q12 39 33.5 75.5t50 68.5
t62.5 58.5t72 46.5q10 5 22 10t26 10q38 13 71 13q57 0 98 -35q2 -2 6 -5.5t9 -8.5q2 -4 5 -7.5t6 -8.5zM156 212q-10 8 28 43q34 34 42 27l12 -9q2 -2 5 -4.5t8 -6.5q43 -27 81 -27q13 0 -18 -36q-35 -35 -47 -35q-38 0 -85 29q-10 3 -14 9q-4 3 -7 5.5t-5 4.5z" />
    <glyph glyph-name="u10349" unicode="&#x10349;" horiz-adv-x="524" 
d="M12 -396q-35 -35 -42 -27q-8 8 27 43q3 1 3 4l22.5 22.5t22.5 19.5q63 61 129.5 133t118.5 163q-4 -1 -10.5 -1h-14.5q-63 0 -109 12q-10 2 -21 5.5t-23 8.5q-60 25 -89 72q-27 40 -27 108q2 79 50 151q49 73 126 117q25 13 50 21q20 7 48 7h1l1 1q9 0 19 -2t19 -3
q57 -18 92 -68q37 -53 37 -126q0 -36 -10 -77q-11 -41 -25.5 -79t-33.5 -74q51 7 101 41q16 13 17 14q3 3 6 5.5t6 5.5q20 25 35 50q17 29 47 49q31 22 18 -5q-30 -49 -77 -101q-10 -11 -21 -21.5t-21 -19.5q-14 -11 -24.5 -19t-17.5 -13q-53 -35 -105 -51
q-30 -48 -64.5 -91.5t-71.5 -84t-74 -77.5t-73 -71q-11 -11 -21.5 -21t-19.5 -19l-1 -2v0zM327 32q11 25 19.5 49t14.5 47q10 33 10 71q0 70 -36 123q-36 50 -89 65q-15 4 -36 4h-2q-22 0 -43 -6q-7 -2 -15.5 -5.5t-19.5 -8.5q-60 -35 -60 -140q-1 -58 27 -103
q30 -48 86 -70q21 -11 43 -15q47 -11 101 -11z" />
    <glyph glyph-name="u10349" unicode="O" horiz-adv-x="524" 
d="M12 -396q-35 -35 -42 -27q-8 8 27 43q3 1 3 4l22.5 22.5t22.5 19.5q63 61 129.5 133t118.5 163q-4 -1 -10.5 -1h-14.5q-63 0 -109 12q-10 2 -21 5.5t-23 8.5q-60 25 -89 72q-27 40 -27 108q2 79 50 151q49 73 126 117q25 13 50 21q20 7 48 7h1l1 1q9 0 19 -2t19 -3
q57 -18 92 -68q37 -53 37 -126q0 -36 -10 -77q-11 -41 -25.5 -79t-33.5 -74q51 7 101 41q16 13 17 14q3 3 6 5.5t6 5.5q20 25 35 50q17 29 47 49q31 22 18 -5q-30 -49 -77 -101q-10 -11 -21 -21.5t-21 -19.5q-14 -11 -24.5 -19t-17.5 -13q-53 -35 -105 -51
q-30 -48 -64.5 -91.5t-71.5 -84t-74 -77.5t-73 -71q-11 -11 -21.5 -21t-19.5 -19l-1 -2v0zM327 32q11 25 19.5 49t14.5 47q10 33 10 71q0 70 -36 123q-36 50 -89 65q-15 4 -36 4h-2q-22 0 -43 -6q-7 -2 -15.5 -5.5t-19.5 -8.5q-60 -35 -60 -140q-1 -58 27 -103
q30 -48 86 -70q21 -11 43 -15q47 -11 101 -11z" />
    <glyph glyph-name="b" unicode="b" horiz-adv-x="355" 
d="M384 628q3 -3 -5 -16t-22 -27q-35 -34 -43 -28v1q-3 1 -4.5 3t-3.5 4q-6 4 -8.5 6t-1.5 1q-23 16 -56 16q-37 0 -56 -51q-10 -25 -17 -47t-12 -42l-2 -10l-1 -2q-21 -73 -43 -139.5t-48 -129.5q1 0 1 -3q-1 -3 -1 -17q0 -42 26 -73q30 -33 69 -37q3 0 7.5 -0.5t9.5 -0.5
q53 0 66 19q7 14 9 19l3 9t4 16v2q0 3 0.5 7.5t0.5 9.5q0 41 -27 73q-29 31 -69 36q-3 1 -17 1q-4 0 -9.5 -0.5t-13.5 -1.5q0 -1 -1 -1h-4l-3 -1h-1q-20 -6 11 31q28 34 50 40v1h5h1q2 0 4 1q13 3 26 3q9 0 11 -1q1 1 3 1h2q2 0 7 0.5t12 1.5l10.5 3.5t6.5 3.5q4 0 8 28
q1 3 1 15q0 4 -2 14q-5 38 -36 59q-11 4 26 41q34 36 44 29q30 -19 39 -62q0 -4 0.5 -8.5t0.5 -7.5q0 -4 -0.5 -8t-0.5 -8q-9 -66 -67 -118q8 -5 14.5 -10.5t11.5 -12.5q28 -32 28 -77v-10t-1 -9h1l-1 -1q-2 -11 -4 -19t-4 -13q-6 -17 -17 -35q-36 -60 -87.5 -95t-105.5 -35
h-18q-45 7 -73 38q-12 13 -17 29q-7 -13 -14 -25q-106 -195 -286 -392q-33 -35 -47 -35q-6 0 -0.5 11t19.5 25q152 169 249 344q51 94 89 195.5t71 219.5v2l3 10q11 38 27 81.5t38 92.5q45 98 156 98q34 0 61 -18l9 -6q3 -2 9 -8z" />
    <glyph glyph-name="thorn" unicode="&#xfe;" horiz-adv-x="546" 
d="M384 368q-10 6 26 42q33 35 43 28q12 -8 21 -18q10 -10 18 -22q43 -64 19 -152q-6 -26 -20 -53q-11 -23 -36 -57q-55 -75 -133 -123q-77 -47 -152 -47q-50 -87 -115 -173.5t-146 -176.5q-33 -35 -47 -35q-5 0 0.5 11t18.5 25q154 172 248 344l4 8l-8 2t-7 1
q-54 15 -86 56q-32 44 -32 100q0 27 9 59q2 8 5 16.5t6 17.5t8 18l10 18q67 117 189 180q25 10 1 -21q-30 -36 -51 -46q-53 -29 -75 -69q-2 -4 -5.5 -10.5t-7.5 -15.5q-5 -12 -10 -29q-4 -16 -5.5 -29t-1.5 -24q0 -56 30 -96q27 -35 70 -51q67 145 119 330v2l2 10
q11 38 27 81.5t38 92.5q45 98 156 98q34 0 61 -18l9 -6q2 -3 4 -4.5t5 -3.5q3 -3 -5 -16t-22 -27q-36 -36 -43 -28v1q-6 6 -8 7q-4 1 -10 7q-23 16 -56 16q-36 0 -55 -51q-10 -25 -17 -47t-12 -42l-3 -10v-2q-32 -112 -69 -211.5t-82 -187.5q5 0 11 -0.5t13 -0.5
q115 0 169 74q9 12 21 33q3 8 7 19t9 25q22 80 -19 142q-8 12 -17 21q-9 10 -21 18z" />
    <glyph glyph-name="r" unicode="r" horiz-adv-x="486" 
d="M80 373q5 20 41 50q35 30 30 10q-11 -39 -22.5 -77t-23.5 -74q2 2 4 0q76 -39 143 -24q31 6 45 17q18 19 25 59q14 67 -16 119q-10 17 -34 38q-47 34 -112 37q-69 4 -137 -31q-46 -28 -73 -67q-23 -34 -51 -47q-29 -17 -3 18q79 108 175 161q73 43 155 38q65 -4 115 -38
q13 -10 22 -20t15 -20q30 -56 16 -126q-17 -66 -69 -123q-68 -73 -135 -86q-27 -6 -49 -4q4 -23 12 -43.5t19 -37.5q40 -66 109 -70h13q53 0 104 24q6 1 15 7l2 2q31 18 49 37q36 34 44 28q10 -6 -25 -41q-55 -57 -115 -89h-1q-1 0 -1 -1q-10 -4 -20 -10q-62 -28 -117 -28
h-14q-72 7 -114 71q-38 62 -38 140q-16 -40 -36 -82t-43 -87q-103 -192 -286 -392q-32 -35 -47 -35t18 37q78 85 140 170.5t110 173.5q51 94 89.5 195t71.5 221z" />
    <glyph glyph-name="hvair" unicode="&#x195;" horiz-adv-x="526" 
d="M402 329q-2 3 -4.5 7t-6.5 9q-4 4 -7 7.5t-6 5.5q-38 33 -96 33q-35 0 -64 -10q-10 -3 -19.5 -7.5t-18.5 -7.5q-72 -41 -99 -125q-10 -31 -10 -64q0 -54 25 -88q22 -36 70 -51q21 -6 47 -6q36 0 65 10q23 8 37 16q72 37 100 124q2 8 3 13.5t2 8.5q1 5 1.5 10.5t2.5 11.5
q6 60 -22 103zM472 399q29 -49 23 -108q-1 -6 -2.5 -12.5t-1.5 -12.5l-3.5 -14t-3.5 -11q-12 -39 -33.5 -75.5t-49.5 -68.5t-62.5 -59t-71.5 -46q-14 -7 -25.5 -11.5t-22.5 -8.5q-39 -11 -70 -11t-52 7q-42 13 -72 51q-25 40 -25 92q0 35 11 71q12 39 33.5 75.5t50 68.5
t62.5 58.5t72 46.5q10 5 22 10t26 10q38 13 71 13q57 0 98 -35q2 -2 6 -5.5t9 -8.5q2 -4 5 -7.5t6 -8.5zM156 212q-10 8 28 43q34 34 42 27l12 -9q2 -2 5 -4.5t8 -6.5q43 -27 81 -27q13 0 -18 -36q-35 -35 -47 -35q-38 0 -85 29q-10 3 -14 9q-4 3 -7 5.5t-5 4.5z" />
    <glyph glyph-name="o" unicode="o" horiz-adv-x="524" 
d="M12 -396q-35 -35 -42 -27q-8 8 27 43q3 1 3 4l22.5 22.5t22.5 19.5q63 61 129.5 133t118.5 163q-4 -1 -10.5 -1h-14.5q-63 0 -109 12q-10 2 -21 5.5t-23 8.5q-60 25 -89 72q-27 40 -27 108q2 79 50 151q49 73 126 117q25 13 50 21q20 7 48 7h1l1 1q9 0 19 -2t19 -3
q57 -18 92 -68q37 -53 37 -126q0 -36 -10 -77q-11 -41 -25.5 -79t-33.5 -74q51 7 101 41q16 13 17 14q3 3 6 5.5t6 5.5q20 25 35 50q17 29 47 49q31 22 18 -5q-30 -49 -77 -101q-10 -11 -21 -21.5t-21 -19.5q-14 -11 -24.5 -19t-17.5 -13q-53 -35 -105 -51
q-30 -48 -64.5 -91.5t-71.5 -84t-74 -77.5t-73 -71q-11 -11 -21.5 -21t-19.5 -19l-1 -2v0zM327 32q11 25 19.5 49t14.5 47q10 33 10 71q0 70 -36 123q-36 50 -89 65q-15 4 -36 4h-2q-22 0 -43 -6q-7 -2 -15.5 -5.5t-19.5 -8.5q-60 -35 -60 -140q-1 -58 27 -103
q30 -48 86 -70q21 -11 43 -15q47 -11 101 -11z" />
    <glyph glyph-name="g" unicode="g" 
d="M96 355q-18 0 -36.5 1.5t-36.5 3.5q-12 1 20 38q34 35 46 34q123 -13 199 0q66 11 74 19q31 35 49 41q8 2 4.5 -7.5t-15.5 -23.5q-71 -84 -175 -101q-45 -8 -99 -6q-5 -7 -6 -9q-26 -38 -36 -75q-12 -39 -12 -73q0 -56 28 -97q29 -43 77 -56q29 -8 54 -8q57 0 114 30
q6 1 15 9q29 16 50 40q12 15 26 27t23 14q18 4 -11 -31q-62 -73 -129 -113q-10 -7 -23 -12q-67 -34 -130 -34q-27 0 -56 8q-53 17 -80 57q-30 42 -30 102q0 40 13 78q15 50 50 100q3 5 7 10t8 11q2 4 6.5 9t9.5 11v1z" />
    <glyph glyph-name="z" unicode="z" horiz-adv-x="371" 
d="M82 -390q-35 -36 -43 -28t27 43q61 61 93 112t41 93q11 56 -15 97q-28 39 -79 59q-48 17 -108 17.5t-121 -14.5q-17 -3 11 30q3 4 8 9.5t13 13.5l337 294q-69 -14 -121 -5q-53 8 -85 35q-34 27 -38 70q-3 33 14 78q7 18 16 29q7 10 14 19t15 18q71 80 153 80h1
q19 0 43 -8q4 -3 7 -3q8 -5 15.5 -10.5t12.5 -10.5q8 -8 -27 -43q-36 -36 -43 -28q-11 11 -28 21q-3 0 -4 1q-1 0 -1 1q-22 8 -41 8q-48 0 -58 -8h1v1q1 1 -8 -14q-15 -34 -11 -64q5 -42 37 -67q33 -26 82 -34q76 -12 153 17q9 3 8 -4q-1 -18 -38 -48l-341 -299
q115 19 200 -12q53 -21 81 -59q28 -43 16 -106q-12 -54 -56.5 -123.5t-132.5 -157.5zM92 580h-1h1z" />
    <glyph glyph-name="u10336" unicode="&#x10336;" horiz-adv-x="371" 
d="M82 -390q-35 -36 -43 -28t27 43q61 61 93 112t41 93q11 56 -15 97q-28 39 -79 59q-48 17 -108 17.5t-121 -14.5q-17 -3 11 30q3 4 8 9.5t13 13.5l337 294q-69 -14 -121 -5q-53 8 -85 35q-34 27 -38 70q-3 33 14 78q7 18 16 29q7 10 14 19t15 18q71 80 153 80h1
q19 0 43 -8q4 -3 7 -3q8 -5 15.5 -10.5t12.5 -10.5q8 -8 -27 -43q-36 -36 -43 -28q-11 11 -28 21q-3 0 -4 1q-1 0 -1 1q-22 8 -41 8q-48 0 -58 -8h1v1q1 1 -8 -14q-15 -34 -11 -64q5 -42 37 -67q33 -26 82 -34q76 -12 153 17q9 3 8 -4q-1 -18 -38 -48l-341 -299
q115 19 200 -12q53 -21 81 -59q28 -43 16 -106q-12 -54 -56.5 -123.5t-132.5 -157.5zM92 580h-1h1z" />
    <glyph glyph-name="u10336" unicode="Z" horiz-adv-x="371" 
d="M82 -390q-35 -36 -43 -28t27 43q61 61 93 112t41 93q11 56 -15 97q-28 39 -79 59q-48 17 -108 17.5t-121 -14.5q-17 -3 11 30q3 4 8 9.5t13 13.5l337 294q-69 -14 -121 -5q-53 8 -85 35q-34 27 -38 70q-3 33 14 78q7 18 16 29q7 10 14 19t15 18q71 80 153 80h1
q19 0 43 -8q4 -3 7 -3q8 -5 15.5 -10.5t12.5 -10.5q8 -8 -27 -43q-36 -36 -43 -28q-11 11 -28 21q-3 0 -4 1q-1 0 -1 1q-22 8 -41 8q-48 0 -58 -8h1v1q1 1 -8 -14q-15 -34 -11 -64q5 -42 37 -67q33 -26 82 -34q76 -12 153 17q9 3 8 -4q-1 -18 -38 -48l-341 -299
q115 19 200 -12q53 -21 81 -59q28 -43 16 -106q-12 -54 -56.5 -123.5t-132.5 -157.5zM92 580h-1h1z" />
    <glyph glyph-name="u10332" unicode="&#x10332;" 
d="M96 355q-18 0 -36.5 1.5t-36.5 3.5q-12 1 20 38q34 35 46 34q123 -13 199 0q66 11 74 19q31 35 49 41q8 2 4.5 -7.5t-15.5 -23.5q-71 -84 -175 -101q-45 -8 -99 -6q-5 -7 -6 -9q-26 -38 -36 -75q-12 -39 -12 -73q0 -56 28 -97q29 -43 77 -56q29 -8 54 -8q57 0 114 30
q6 1 15 9q29 16 50 40q12 15 26 27t23 14q18 4 -11 -31q-62 -73 -129 -113q-10 -7 -23 -12q-67 -34 -130 -34q-27 0 -56 8q-53 17 -80 57q-30 42 -30 102q0 40 13 78q15 50 50 100q3 5 7 10t8 11q2 4 6.5 9t9.5 11v1z" />
    <glyph glyph-name="u10332" unicode="G" 
d="M96 355q-18 0 -36.5 1.5t-36.5 3.5q-12 1 20 38q34 35 46 34q123 -13 199 0q66 11 74 19q31 35 49 41q8 2 4.5 -7.5t-15.5 -23.5q-71 -84 -175 -101q-45 -8 -99 -6q-5 -7 -6 -9q-26 -38 -36 -75q-12 -39 -12 -73q0 -56 28 -97q29 -43 77 -56q29 -8 54 -8q57 0 114 30
q6 1 15 9q29 16 50 40q12 15 26 27t23 14q18 4 -11 -31q-62 -73 -129 -113q-10 -7 -23 -12q-67 -34 -130 -34q-27 0 -56 8q-53 17 -80 57q-30 42 -30 102q0 40 13 78q15 50 50 100q3 5 7 10t8 11q2 4 6.5 9t9.5 11v1z" />
    <glyph glyph-name="j" unicode="j" horiz-adv-x="471" 
d="M308 157q-32 -27 -32 -14q0 60 80 83q13 4 30 0q14 -3 27 -16q30 -32 5 -95q-8 -20 -16.5 -42t-18.5 -45l-2 -6l-1 -1q-56 -129 -144 -231q-45 -52 -80 -91t-61 -66q-8 -8 -13.5 -14t-7.5 -8q-32 -35 -47 -35q-16 0 18 37q4 5 12 13l20 20q22 23 50.5 55t64.5 74
q72 83 119 193v1l3 5q8 21 14 35t14 34q-13 -11 -26.5 -21.5t-27.5 -18.5q-9 -3 -21 -11q-59 -31 -118 -31q-31 0 -51 7q-44 13 -72 51q-26 40 -26 92q0 35 11 71q12 39 33.5 75.5t50 68.5t62.5 58.5t72 46.5q10 5 22 10t26 10q38 13 71 13q58 0 99 -35q3 -3 6.5 -7t7.5 -7
q2 -4 5 -7.5t6 -8.5h1q6 -12 -30 -44q-34 -37 -40 -26h-1q-2 3 -4.5 7t-6.5 9t-7.5 8t-5.5 5q-38 33 -95 33h-1q-35 0 -64 -10q-10 -3 -19 -7.5t-18 -7.5q-73 -40 -100 -125q-10 -31 -10 -64q0 -53 26 -88q22 -36 69 -51q21 -6 48 -6q50 0 102 26q5 4 8.5 5.5t4.5 2.5
q14 6 27 19q6 32 -13 56q-11 11 -25 15q-3 0 -5.5 0.5t-4.5 0.5z" />
    <glyph glyph-name="one" unicode="1" horiz-adv-x="354" 
d="M-29 -408q-36 -35 -44 -27q-8 9 28 42v1q25 24 54 63q14 18 28 39t29 46q69 118 117 259.5t74 296.5q-31 -36 -66 -68.5t-71 -53.5q-32 -20 -61.5 -26.5t-50.5 8.5q-6 2 -8 5q-7 7 27 41q35 35 43 28q1 -2 7 -4q34 -22 84 8q16 11 32 26t32 35q11 14 22 28.5t22 31.5
q10 19 33 37q36 33 33 14q-24 -172 -76 -331t-130 -293q-19 -31 -36.5 -56.5t-34.5 -47.5q-41 -51 -87 -102z" />
    <glyph glyph-name="two" unicode="2" horiz-adv-x="508" 
d="M88 270q6 -12 -30 -44q-37 -37 -41 -26q-17 28 -17 61q0 25 14 55q29 56 88 93q31 19 67 19q30 0 60 -21q26 -18 40 -49q13 -34 3 -73q-21 -66 -99 -136l-1 -1q-14 -13 -28.5 -25t-29.5 -23q-21 -16 -43 -34.5t-39 -36.5q50 31 94 14q26 -11 49.5 -34t44.5 -50
q3 -4 6 -7.5t5 -5.5q18 -19 42 -36.5t54 -25.5q64 -13 116 28q2 1 5 4q36 31 36 17q0 -6 -11 -20.5t-25 -27.5q-4 -4 -9.5 -8.5t-12.5 -10.5q-51 -39 -92 -50t-74 -4q-31 8 -56.5 26t-43.5 38l-7.5 9t-3.5 4q-21 27 -43.5 50.5t-47.5 33.5q-48 19 -72 -11q-5 -7 -11 -12.5
t-13 -10.5q-36 -31 -28 -7q20 59 80 113q31 28 60.5 53t57.5 48q30 22 39 31q1 0 1 1t1 2q21 21 28 46q9 30 -3 64q-12 27 -38 47q-30 18 -56 18q-16 0 -28 -3q-4 -15 -4 -26q0 -34 16 -56z" />
    <glyph glyph-name="three" unicode="3" horiz-adv-x="266" 
d="M12 371q0 15 36 47q14 13 25 18.5t11 -0.5q0 -28 23 -42l7.5 -5t10.5 -5q7 -2 12.5 -3t9.5 -2q37 -9 88 0q19 3 -14 -33l-1 -1l-134 -153q67 12 102 -18q18 -15 27 -35t12 -38q4 -21 0 -48q-3 -21 -15 -53q-31 -78 -108 -170q-74 -90 -174 -169q-33 -27 -24 -4
q10 24 45 51q33 26 62.5 55.5t54 60.5t44 61.5t31.5 59.5q5 14 8 26t5 21q3 21 0 42q-4 17 -12.5 36.5t-25.5 34.5q-38 31 -112 11h-2q-14 -1 14 33l138 156q-45 -5 -76 1q-2 1 -8 2.5t-15 4.5q-16 7 -20 10q-25 18 -25 48z" />
    <glyph glyph-name="five" unicode="5" horiz-adv-x="476" 
d="M-4 -312q-35 -33 -43 -27q-8 7 28 43l2 2q10 10 18.5 19.5t20.5 18.5q29 29 60.5 64t63.5 78q64 84 18 172q-8 13 -12 17l-8.5 8.5t-7.5 6.5q-24 18 -57.5 25t-69.5 -9q-11 -6 -9 5l84 228q8 20 44 50q25 21 27 12q7 -22 16 -31q18 -22 49 -18q24 2 58 24q25 16 52 41.5
t56 62.5q25 31 50 43q20 5 -7 -28q-45 -54 -92.5 -101t-95.5 -77q-49 -32 -85 -37q-25 -4 -41 8l-41 -108q39 13 73 6t58 -25q6 -5 10.5 -9t6.5 -7l6 -8t6 -9v-1q19 -35 18 -71.5t-14.5 -73t-38 -72t-53.5 -69t-59.5 -64t-57.5 -56.5q-24 -21 -29 -29q-1 -1 -2 -1.5t-2 -2.5
z" />
    <glyph glyph-name="six" unicode="6" horiz-adv-x="389" 
d="M274 298q3 -1 8 -3.5l13 -6.5q6 -4 10.5 -7.5t7.5 -5.5q44 -43 37 -110v-1q-3 -18 -9 -33q-7 -19 -18 -37q-37 -60 -90.5 -96.5t-107.5 -36.5q-15 0 -19 1q-48 6 -76 39q-30 34 -30 81q0 2 0.5 7t1.5 13h-1l1 2q1 4 2 10t3 14q15 54 49.5 108t79.5 106q46 54 98.5 102
t103.5 90q34 26 26 5q-11 -26 -44 -50q-39 -32 -77.5 -67.5t-69.5 -71.5q-36 -40 -62 -85q58 42 116 42h1q4 0 10 -0.5t14 -1.5l3 -1q9 -2 19 -6zM205 227q-8 3 -18 6h-3q-7 1 -12.5 1.5t-9.5 0.5h-1q-58 0 -71 -22q-6 -10 -10 -20q-4 -12 -6 -26v-2q-1 -5 -1.5 -9t-0.5 -8
q0 -46 28 -77q25 -32 72 -39h18q57 0 71 21l4.5 9t5.5 12q2 6 4 12.5t3 14.5v1q7 63 -35 102q-4 3 -8.5 6.5t-8.5 7.5q-15 7 -21 9z" />
    <glyph glyph-name="seven" unicode="7" horiz-adv-x="320" 
d="M82 407q5 22 38 49q36 32 34 15q-8 -65 35 -85q34 -18 105 -7q11 2 -4 -21q-6 -7 -10.5 -14t-9.5 -13v-1q-26 -36 -54.5 -78t-54.5 -93q33 0 59 2.5t27 2.5q13 0 -16 -35q-14 -15 -28 -26t-21 -11q-6 -1 -15 -2q-8 -1 -18 -1.5t-21 -0.5q-26 -63 -42 -136t-16 -163
q0 -15 -36 -48q-35 -32 -35 -18q0 111 24 200t60 164q-29 -1 -49.5 0t-33.5 5q-9 4 22 38q30 35 46 34q18 -5 53 -5q24 39 48 74.5t46 66.5l1 1l3 5q-65 -9 -99 9q-47 23 -38 92z" />
    <glyph glyph-name="eight" unicode="8" horiz-adv-x="382" 
d="M329 446l8 -8q7 -7 8 -9q19 -27 14 -62v-1v-1q-2 -13 -6 -23q-2 -7 -5.5 -13t-7.5 -13q-20 -36 -50 -61q0 -2 2 -2q41 -38 33 -100v1v-1v-2q-1 -14 -8 -29q-8 -20 -16 -34q-36 -57 -86 -92t-101 -35h-1q-13 0 -16 1q-45 6 -70 36q-27 30 -27 74q0 3 0.5 7.5t0.5 10.5v2
q1 5 3 12.5t5 17.5q2 6 6 14.5t11 19.5q38 60 86 93q-10 19 -10 41q0 10 1 14l1 1q2 12 6 22q2 9 13 28q29 48 70 78.5t83 30.5q1 0 1 -1q12 0 27 -4q-3 0 5 -2l10 -6t9 -5h1zM259 376q-6 4 -10.5 6.5t-7.5 3.5h-1h-1q-1 0 -1.5 0.5t-1.5 0.5q-9 4 -25 4q-29 0 -26 5
q-3 -3 -5 -12q-3 -5 -5 -16v-1h-1v-1v-11q0 -31 19 -50q14 -17 35 -23q2 0 3.5 -0.5t3.5 -0.5l4 -1q4 0 5 -1h8q27 0 26 -4q2 3 3 6t2 5q3 5 5 16v2q4 29 -13 56l-8 8l-8 8v0zM174 208q-7 0 -13 3h-13q-53 0 -60 -15q-4 -4 -9 -17q-5 -14 -6 -25v-1q-1 -3 -1 -16
q0 -42 25 -70q24 -29 66 -35h15h1q49 0 60 14q7 14 8 19q2 4 3.5 10l3.5 14v1q7 56 -32 94q-5 4 -9 6.5t-7 4.5q-18 8 -19 9q-6 0 -10 4h-3z" />
    <glyph glyph-name="nine" unicode="9" horiz-adv-x="367" 
d="M76 88q-14 4 -21 11q-7 4 -18 13q-43 40 -36 109h-1h1v2q1 7 2.5 15t5.5 18q10 24 18 36q18 30 41 55t48.5 43t53.5 28t56 10q3 0 7.5 -0.5t10.5 -1.5q45 -6 76 -40q30 -35 30 -82q0 -2 -0.5 -7t-1.5 -12v-2q0 -3 -0.5 -5t-0.5 -5q-1 0 -1 -1q-24 -99 -64.5 -181
t-91.5 -148q-55 -75 -114 -132.5t-111 -100.5q-34 -26 -26 -5q9 20 44 50q36 30 76 70t79 91q33 45 62.5 98t51.5 119q-64 -53 -129 -53q-4 0 -10 0.5t-14 1.5l-4 1q-4 1 -9 2t-10 3zM144 159q4 -2 8.5 -3t9.5 -2h4q10 -3 22 -3q57 0 72 23q1 2 3.5 6.5t6.5 12.5q1 4 3 10
l2 8v1q0 1 2 9q1 3 1 18q0 45 -28 77q-27 30 -72 38q-4 1 -18 1q-58 0 -71 -22q-9 -14 -10 -20q-2 -5 -3.5 -11.5t-3.5 -15.5v-1q-10 -62 35 -103q6 -6 17 -13q4 -3 20 -10z" />
    <glyph glyph-name="zero" unicode="0" horiz-adv-x="451" 
d="M337 292q-3 3 -5.5 6.5t-4.5 6.5t-11 12q-32 26 -80 26q-23 0 -52 -8q-16 -5 -30 -13q-54 -28 -73 -93q-9 -29 -9 -53q0 -43 21 -73q22 -33 58 -42q22 -5 39 -5q29 0 53 8q14 4 31 12q51 29 72 94l1 1q0 4 1.5 8.5t2.5 9.5q0 1 3 18q4 47 -17 85zM407 361q23 -39 19 -91
q-1 -4 -2 -9.5t-2 -10.5t-2 -10.5t-3 -10.5q-21 -69 -73.5 -126.5t-118.5 -91.5q-15 -8 -40 -16q-35 -11 -60 -11q-21 0 -42 7q-37 10 -61 43q-22 32 -22 76q0 27 10 60q21 67 73 125t119 93q12 6 22 10.5t18 6.5q27 10 60 10q49 0 84 -29l11 -11q5 -5 10 -14z" />
    <glyph glyph-name="exclam" unicode="!" horiz-adv-x="264" 
d="M0 62q-5 11 30 44t41 25l35 -60q8 -9 -30 -44q-35 -35 -41 -25l-35 60v0zM137 243q-11 -25 -44 -50q-36 -30 -25 -4l21 54q11 28 21.5 59.5t21.5 66.5q22 70 36 138q13 67 -4 95q-8 10 29 44q35 35 41 25q18 -29 5 -99q-13 -68 -36 -143q-11 -37 -22 -69t-22 -61
q-6 -14 -10 -24.5t-7 -17.5q-4 -8 -5 -14z" />
    <glyph glyph-name="guillemotright" unicode="&#xbb;" horiz-adv-x="226" 
d="M117 16q-8 11 28 47q38 38 46 29q21 -32 26 -57q1 -3 1 -19q0 -63 -77 -140q-38 -35 -47 -25v-1q-11 10 27 47q8 11 13 24.5t5 31.5v8t-1 7q-2 14 -7.5 25.5t-13.5 21.5v1zM-25 16q-6 10 27 47q37 37 46 29q20 -31 27 -57v-10q0 -2 0.5 -4.5t0.5 -4.5q-1 -32 -20.5 -66.5
t-55.5 -73.5q-39 -37 -48 -26q-10 10 27 47q18 19 18 56v15q-2 14 -7 25.5t-15 21.5v1z" />
    <glyph glyph-name="section" unicode="&#xa7;" horiz-adv-x="487" 
d="M-65 -390q-34 -35 -43 -28q-8 7 28 43q8 8 15.5 16t14.5 15q122 134 146 250q22 112 -48 184l-4 4l-12 12q-32 37 -32 87q0 5 0.5 10.5t0.5 11.5v1q3 13 5.5 22t4.5 14q2 8 7 18t12 21q55 89 139 126q-15 41 11 97q5 14 15 29q7 10 14 19t15 18q72 80 154 80h1
q20 0 42 -8q6 -3 7 -3q8 -5 15.5 -10.5t12.5 -10.5q8 -8 -27 -43q-34 -34 -43 -28q-8 9 -27 21q-2 0 -3 0.5t-2 0.5t-1 1q-21 8 -40 8h-1q-49 0 -57 -8v1q-3 -4 -7 -14q-33 -73 14 -120q9 -11 19 -17q4 -2 9.5 -5t13.5 -7q0 -1 1 -1q52 -27 67 -89q0 -1 0.5 -3t0.5 -4
q0 -5 1 -7q1 -10 0.5 -19t-1.5 -17v-2q-2 -10 -4.5 -18.5t-4.5 -16.5t-7 -18t-12 -21q-33 -54 -79 -90.5t-97 -46.5q9 -47 -2 -98q-14 -64 -60 -142.5t-131 -172.5q-8 -10 -18 -20.5t-23 -21.5zM114 164q25 -24 67 -30q4 -1 19 -1q67 0 83 28q7 13 11 24q2 5 4 12t3 16
q0 1 1 2q3 16 0 33q0 5 -1 7v5v1q-14 57 -65 85l-1 1q-3 0 -6 3q-2 0 -3 1q-6 2 -23 7q-5 1 -11.5 1.5t-15.5 0.5h-1q-67 0 -83 -28q-2 -4 -5 -9.5t-6 -13.5q-5 -12 -7 -30l-1 -1q-1 -4 -1 -19q0 -50 30 -83q2 -3 9 -10h1z" />
    <glyph glyph-name="percent" unicode="%" horiz-adv-x="516" 
d="M94 324q9 0 16 4v1q3 1 -0.5 0t-0.5 5q8 18 8 34q0 9 -3 17q-3 5 -10 9q-3 3 -9 3q-8 0 -15 -5q-1 0 -1 -1q-3 -2 0.5 -1t1.5 -4q-9 -18 -9 -34q0 -8 4 -17q3 -6 9 -9q4 -2 9 -2zM63 263q-22 -11 -34 -11q-8 0 -12 3q-8 1 -13 12q-4 5 -4 20q0 20 12 47q29 61 95 111v-1
q1 1 6 4t13 9q20 11 34 11q3 0 13 -2q7 -4 12 -13q4 -9 4 -20q0 -20 -12 -47q-28 -62 -94 -111q-5 -4 -10 -7t-10 -5zM399 144q5 0 15 5h1q2 1 -1.5 0.5t-0.5 4.5q8 21 8 35q0 8 -3 16q-3 5 -10 9q-2 2 -9 2q-10 0 -15 -4v-1q-4 -2 -0.5 -1t1.5 -4q-9 -18 -9 -34q0 -9 4 -16
q2 -6 9 -10q8 -2 10 -2zM367 84q-17 -11 -34 -11q-4 0 -12 2q-9 3 -12 12q-5 8 -5 20q0 18 13 47q25 59 94 111v-1q1 1 6 4t13 9q20 11 34 11q3 0 13 -2q8 -5 11 -13q4 -7 4 -20q0 -23 -12 -47q-32 -65 -93 -110v1v-1q-5 -4 -10 -7t-10 -5zM341 546q3 19 40 49
q14 12 23.5 15.5t7.5 -3.5q-5 -22 -12.5 -47.5t-18.5 -54.5q-20 -50 -49 -106q-37 -71 -82.5 -139t-99.5 -135q-107 -132 -192 -210q-34 -33 -37 -19q-2 14 35 47q67 61 157 174q87 109 154 234q12 24 23.5 49t20.5 49q22 55 30 97z" />
    <glyph glyph-name="slash" unicode="/" horiz-adv-x="509" 
d="M410 595q4 18 41 50q33 27 29 9l-1 -2q-9 -31 -22 -63t-30 -66q-17 -32 -38 -67t-47 -73q-124 -185 -285 -353q-81 -85 -145.5 -149.5t-113.5 -109.5q-37 -33 -37 -19q-2 14 35 47q44 41 101.5 99t130.5 134q147 153 256 316q22 32 41 63.5t35 62.5q32 65 50 119v2v0z
" />
    <glyph glyph-name="parenleft" unicode="(" horiz-adv-x="442" 
d="M111 -252q4 -10 -30 -44q-35 -37 -41 -26v1q-8 12 -14.5 27.5t-11.5 34.5q-10 35 -13 93q-4 139 66 358q70 220 285 475q27 32 50 41q18 4 -10 -30q-194 -232 -261 -439q-65 -208 -58 -339q2 -46 12 -92q11 -39 25 -60h1v0z" />
    <glyph glyph-name="parenright" unicode=")" horiz-adv-x="231" 
d="M110 637q-7 10 29 44q34 34 42 26l1 -1q15 -26 24 -64q10 -39 12 -93q2 -142 -73 -360q-75 -216 -287 -471q-30 -33 -50 -41q-21 -5 10 31q193 229 262 435q69 205 66 340q-1 25 -3.5 48t-7.5 44q-8 32 -24 62h-1v0z" />
    <glyph glyph-name="equal" unicode="=" horiz-adv-x="452" 
d="M0 169q-4 0 0.5 11t19.5 25q32 36 47 35q58 -7 101.5 -9.5t82.5 -2.5q67 0 163 12q17 2 -15 -34q-34 -36 -49 -37q-93 -12 -164 -12q-40 -1 -84.5 2.5t-101.5 9.5zM0 288q-13 1 20 38q34 35 47 34q117 -12 184 -12t163 12q17 2 -15 -34t-49 -38q-93 -12 -164 -12t-186 12
z" />
    <glyph glyph-name="question" unicode="?" horiz-adv-x="337" 
d="M0 62q-6 8 29 43q34 34 42 26l47 -60q5 -11 -29 -43q-34 -34 -41 -27l-48 61v0zM118 577q-2 -4 -4.5 -8t-3.5 -7q-11 -24 -45 -51q-33 -26 -23 -2q1 1 1 3q3 6 6.5 12t7.5 12q4 8 10 15.5t12 16.5l2 2q75 90 150 90q8 0 13 -0.5t9 -1.5q30 -6 51 -31q17 -28 17 -61
q0 -15 -3 -31q-12 -58 -55 -100q-22 -21 -44 -40.5t-45 -38.5q-36 -27 -40 -49q-1 -2 -1 -11q0 -21 10 -31q11 -14 29 -18h12q6 0 0.5 -11t-18.5 -25q-33 -36 -48 -36q-2 0 -5 0.5t-8 1.5q-18 1 -32 18q-12 15 -12 36q0 12 1 15q4 24 17 44.5t30.5 39t39 36.5t44.5 36
q17 14 32.5 30t21.5 42q1 9 1.5 15.5t0.5 11.5q0 34 -16 56q-18 24 -48 30q-3 1 -20 1q-37 0 -42 -5q-4 -4 -5 -6z" />
    <glyph glyph-name="bracketleft" unicode="[" horiz-adv-x="749" 
d="M272 -380q-37 -33 -43 -27q-8 8 26 42q1 3 -1.5 7t-1.5 17q0 31 -18 61q-21 32 -57 49q-67 32 -172 4h-1h-1h-1q-2 2 -2 7l288 862q4 16 31 41q35 33 41 24q4 -11 12 -19q26 -28 89 -26q29 1 59.5 8t62.5 21q55 23 81 49q34 34 43 27q7 -7 -28 -42q-35 -36 -73.5 -61.5
t-76.5 -42.5q-69 -29 -132 -31q-43 -1 -71 12l-252 -755q57 14 99.5 10.5t72.5 -17.5q37 -17 59 -51q18 -32 18 -66q0 -51 -51 -103z" />
    <glyph glyph-name="bracketright" unicode="]" horiz-adv-x="339" 
d="M297 697q7 7 12 8q14 8 11 -3v-1l-288 -862q-1 0 -1 -1t-0.5 -1.5t-0.5 -1.5q0 3 -4 -8h-1v-1l-1 -2q-3 -3 -6 -6.5t-6 -8.5l-1 -1q-2 -2 -3 -2l-1 -2l-7 -7v-1h-1l-6 -6h-1v-1l-2 -1l-1 -2l-2 -1q-6 -4 -10.5 -6.5t-6.5 -3.5h-1l-1 -1q-1 -1 -2 -1h-1h-1l-1 1
q-49 25 -118 22q-70 -3 -149 -61q-12 -9 -24.5 -20t-25.5 -23q-15 -15 -29 -31.5t-28 -33.5l-1 -1q-26 -32 -51 -44q-20 -7 5 25q43 57 91 102q22 22 44.5 42t46.5 37q81 58 147.5 72t117.5 0l255 767q-55 -36 -101.5 -47t-79.5 -5q-26 6 -42 20q-15 11 -20 33q-6 44 53 109
q14 14 27 23.5t18 7.5q11 -5 -23 -40q-8 -11 -3 -33q3 -18 18 -30q16 -14 39 -18q32 -7 75.5 3.5t91.5 46.5z" />
    <glyph glyph-name="braceleft" unicode="{" horiz-adv-x="506" 
d="M474 676q7 -9 -28 -43q-35 -36 -42 -27l-8 8q-6 5 -10 6q-26 17 -56 17q-29 0 -48 -61q-10 -31 -17.5 -57.5t-13.5 -49.5q-1 -4 -3 -11.5t-5 -19.5q-7 -26 -20 -60.5t-37 -68.5q-25 -36 -60 -67q19 -21 16 -62q-3 -36 -17.5 -77t-27.5 -76q-14 -29 -27 -57.5t-25 -55.5
q-22 -48 -37.5 -89t-26.5 -76q-22 -70 20 -97q12 -6 -23 -41q-33 -33 -45 -30q-48 30 -24 104q11 37 29 81t41 95q12 27 24 55.5t24 57.5q13 32 27 70t17 72q2 32 -13.5 54t-57.5 23q-12 0 15 35q29 35 50 36q55 1 66 15q15 21 25 49t16 51q2 5 4 12.5t4 17.5q6 28 15 61
t21 66t28.5 64.5t38.5 55.5t50 38.5t63 14.5q30 0 59 -18q-1 1 1.5 -1t8.5 -7l4 -4t5 -3z" />
    <glyph glyph-name="braceright" unicode="}" horiz-adv-x="288" 
d="M121 647q-31 -37 -50 -41q-22 -7 9 28q52 64 102 75q19 3 46 -5q18 -7 32 -26q15 -20 13 -46q-3 -29 -8.5 -51t-13 -40.5t-17 -35t-19.5 -32.5q-10 -14 -25 -41q-6 -12 -8 -14q-12 -24 -25.5 -51.5t-13.5 -50.5q0 -52 83 -52l-66 -71q-44 0 -63 -49q-10 -25 -17 -48
t-12 -46q-1 -4 -2 -8.5t-3 -10.5v-1q-20 -81 -65.5 -149.5t-99 -123t-107 -95t-88.5 -64.5q-15 -12 -12 -9q-13 -9 -18 -7.5t1 12.5q6 12 20.5 27t26.5 24q5 3 8.5 5t6.5 4q25 17 59 46t79 69q89 80 119 202q2 7 5 20q6 26 13.5 54.5t17.5 59.5q20 63 61 104q-19 13 -19 42
q0 27 15.5 60t31.5 60q4 13 7 13q8 16 15 28t14 21q16 27 29 55.5t19 78.5q1 22 -12 42q-13 16 -31 24q-21 8 -39 4q-4 -1 1 7q4 9 0 3z" />
    <glyph glyph-name="Euro" unicode="&#x20ac;" horiz-adv-x="594" 
d="M525 452q4 -10 -30 -44t-41 -25q-4 6 -7.5 10.5t-5.5 7.5q-4 3 -7.5 7t-6.5 8q-43 37 -108 37q-37 0 -73 -12q-28 -10 -43 -18q-44 -22 -79 -68q0 -2 0.5 -3.5t0.5 -3.5q3 -14 22 -24q10 -5 22 -8.5t26 -5.5q42 -7 93 0t91 32q28 19 10 -12q-19 -29 -50 -49
q-51 -31 -108 -40.5t-102 -2.5q-36 6 -50 16h-2q-1 -4 -3 -17q0 -2 2 -8q5 -20 38 -32q33 -13 74 -15q40 -2 83 6t77 29q27 18 10 -12q-21 -30 -50 -49q-43 -27 -93 -37.5t-93 -7.5q-6 0 -10 0.5t-9 0.5l2 -2q32 -42 93 -62q39 -12 89 -12q73 0 141 31q3 2 17 9
q17 11 30.5 21.5t21.5 20.5q12 14 26.5 26t23.5 14q19 4 -11 -30q-60 -72 -135 -116q-10 -7 -25 -12q-72 -34 -155 -34q-51 0 -91 12q-65 21 -95 63q-35 44 -35 104q0 13 3 30q0 8 1 10q1 5 3 12.5t5 17.5q13 43 36 82t55 76t69 65.5t79 50.5q16 8 29 13.5t24 9.5
q38 13 80 13q64 0 111 -39q12 -10 16 -16q5 -8 8.5 -12t5.5 -6z" />
    <glyph glyph-name="asterisk" unicode="*" horiz-adv-x="371" 
d="M0 324q-8 6 25 42q34 34 44 30q7 -5 22.5 -15.5t40.5 -27.5q1 16 1.5 27t0.5 17q-1 22 -3 25q-4 10 32 45q34 34 40 23q2 -8 2 -28q0 -14 -0.5 -26t-1.5 -21q-2 -23 -5 -46t-8 -46q9 8 19.5 16t19.5 16q34 29 61.5 50t43.5 26q20 6 -7 -28q-32 -36 -51 -42
q-3 -2 -20 -15.5t-41 -32.5l-12 -10q27 -19 49 -33.5t33 -17.5q11 -6 -23 -40q-34 -35 -45 -31q-8 2 -22.5 11t-36.5 23q-17 -42 -39.5 -81t-52.5 -69q-34 -36 -42 -28t27 43q21 22 37 63.5t27 89.5q-40 -30 -77 -51.5t-64 -24.5q-17 -2 15 33q29 34 47 38q21 1 63 28
q-8 5 -15 10t-13 10q-26 18 -45 31.5t-26 16.5z" />
    <glyph glyph-name="plus" unicode="+" horiz-adv-x="452" 
d="M0 228q-15 2 20 37q32 36 47 35q35 -4 64 -7t56 -3q-1 16 -2 27.5t-3 19.5q-11 49 -29 73q-8 7 28 43q34 34 42 26q21 -29 30 -75q6 -29 6 -63q0 -8 -0.5 -21.5t-1.5 -31.5q65 0 157 12q17 2 -15 -34q-14 -15 -28 -26t-21 -11q-30 -4 -56 -7t-50 -4q-18 -73 -61.5 -153
t-119.5 -156q-35 -35 -43 -27q-9 9 28 43q60 60 92 133.5t42 145.5q0 4 2 12q-70 0 -184 12z" />
    <glyph glyph-name="asciitilde" unicode="~" horiz-adv-x="736" 
d="M72 260q0 -14 -35 -47q-36 -31 -37 -18q0 50 71 115q36 33 72 48q30 13 62 13q33 0 69.5 -16.5t73.5 -55.5q61 -69 120 -51q60 20 104 61q12 11 24.5 24t26.5 28q11 12 18 19.5t11 11.5q34 33 44 28q5 -10 -28 -44l-18 -18q-18 -20 -37 -39l-39 -39q-65 -59 -147 -94
q-80 -33 -149 43q-36 38 -71.5 54t-66.5 16t-51 -10q-14 -4 -16 -8q-1 -2 -1 -6v-15v0z" />
    <glyph glyph-name="quotesingle" unicode="'" horiz-adv-x="100" 
d="M-3 633q-7 11 29 47q37 37 46 28q11 -17 17 -30.5t8 -26.5q0 -2 0.5 -2t0.5 -2q1 -3 1 -8v-7q0 -32 -20 -67.5t-57 -72.5q-13 -11 -26.5 -22t-18.5 -7q-9 12 24 50q19 19 20 55q0 5 -1 10q0 2 -0.5 3.5t-0.5 3.5q-2 13 -8 24.5t-14 23.5z" />
    <glyph glyph-name="numbersign" unicode="#" horiz-adv-x="609" 
d="M0 156q-14 2 21 37q33 36 46 33l24 -4t24 -3q14 36 27 73.5t26 76.5q-39 4 -102 15q-14 3 21 38q32 36 46 34q15 -3 29.5 -5.5t28.5 -4.5q3 12 6.5 24.5t7.5 24.5q6 25 11.5 49.5t9.5 48.5q3 18 39 49q35 32 33 13q-6 -26 -11.5 -50.5t-11.5 -48.5q-6 -26 -13.5 -52
t-14.5 -51l-5 -13q29 -4 57 -5.5t56 -1.5q15 0 31 0.5t32 1.5q4 15 8.5 30t7.5 30q5 21 11 45.5t11 52.5q2 18 39 49q33 32 32 13q-5 -26 -10.5 -50.5t-11.5 -48.5l-14 -52t-15 -51q-1 -2 -2 -5t-2 -7q34 4 90 15q19 3 -13 -33q-31 -36 -49 -39q-13 -3 -25.5 -4.5
t-23.5 -3.5q-15 -43 -31 -85t-32 -81q24 2 51 6t58 10q16 4 -13 -32q-34 -35 -49 -38q-21 -4 -39.5 -7t-36.5 -6q-19 -42 -37 -79t-33 -64q-8 -14 -19.5 -26.5t-27.5 -23.5q-31 -19 -18 4q18 35 40.5 81t46.5 103q-19 -2 -40.5 -3.5t-46.5 -1.5q-28 0 -52 1.5t-45 3.5
q-19 -42 -36 -76.5t-32 -61.5q-8 -14 -19.5 -26.5t-27.5 -23.5q-30 -21 -17 4q18 35 41 83t48 106q-20 2 -41 5.5t-43 7.5zM159 213q34 -5 66.5 -7.5t63.5 -2.5q12 0 24.5 0.5t25.5 1.5q15 39 29.5 80t28.5 83q-28 -3 -54.5 -5t-52.5 -2q-36 0 -73 3q-15 -40 -29 -78
t-29 -73z" />
    <glyph glyph-name="comma" unicode="," horiz-adv-x="75" 
d="M-26 16q-6 10 27 47q38 38 47 29q20 -32 26 -57v-10q0 -2 0.5 -4.5t0.5 -4.5q-1 -61 -76 -140q-38 -36 -48 -26q-9 9 27 47q18 19 18 56v16q-2 14 -7 25t-15 21v1z" />
    <glyph glyph-name="period" unicode="." horiz-adv-x="130" 
d="M-2 25q-7 12 28 47q37 37 46 29l48 -63q7 -12 -28 -47q-39 -36 -48 -25q-12 14 -23 29t-23 29v1z" />
    <glyph glyph-name="semicolon" unicode=";" horiz-adv-x="202" 
d="M-3 16q-6 12 30 47q37 39 45 29q11 -17 17.5 -32t8.5 -28q1 -5 1.5 -8.5t0.5 -7.5q0 -61 -77 -140q-38 -36 -48 -26q-11 11 27 47q18 18 20 56q0 3 -1 8q0 2 -0.5 4t-0.5 4q-4 25 -22 46zM66 334q-11 11 28 49q39 36 47 25l47 -59v1q11 -12 -28 -49q-37 -37 -44 -29
l-50 63v-1z" />
    <glyph glyph-name="colon" unicode=":" horiz-adv-x="218" 
d="M81 335q-8 12 28 48q38 36 45 29l50 -63q8 -14 -29 -48q-37 -37 -44 -29l-50 63v0zM-2 25q-7 13 29 47q36 36 45 29l49 -63q8 -12 -29 -47q-39 -36 -47 -25q-12 14 -23.5 29t-23.5 29v1z" />
    <glyph glyph-name="hyphen" unicode="-" horiz-adv-x="452" 
d="M0 228q-15 2 20 37q32 36 47 35q117 -12 184 -12t163 12q17 2 -15 -34q-14 -15 -28 -26t-21 -11q-48 -6 -86.5 -9.5t-77.5 -3.5q-71 0 -186 12z" />
    <glyph glyph-name="Unterstrich" unicode="&#x331;" horiz-adv-x="602" 
d="M0 -83q-12 4 20 38q31 36 47 34h4q31 -1 67 -6q18 0 36.5 -1.5t36.5 -2.5q94 -3 185.5 -0.5t160.5 10.5q16 4 -15 -33q-32 -37 -48 -38q-34 -4 -74 -6.5t-88 -3.5q-94 -3 -187 0q-20 1 -38.5 2t-34.5 2q-14 1 -31 2t-37 3h-4v0z" />
    <glyph glyph-name="periodcentered" unicode="&#xb7;" horiz-adv-x="130" 
d="M0 277q-5 10 29 44t42 26l47 -60q6 -11 -29 -43q-35 -38 -41 -27l-48 60v0z" />
    <glyph glyph-name="mu" unicode="&#xb5;" horiz-adv-x="532" 
d="M100 408v-252q0 -52 32 -93q31 -39 76 -39t77 39q32 41 32 93v252h71v-336q0 -18 10 -33t39 -15q38 0 46 48h25q0 -20 -7.5 -37t-20.5 -30t-30.5 -20.5t-36.5 -7.5q-37 0 -64.5 24t-31.5 61q-45 -85 -133 -85q-44 0 -84 27v-208q0 -36 -36 -36t-36 36v612h72z" />
    <glyph glyph-name="uni00B2" unicode="&#xb2;" horiz-adv-x="327" 
d="M113 728q3 -11 -29 -43q-37 -35 -41 -25q-9 15 -9 31q0 17 8 31q23 47 71 75q18 12 39 12h1q14 0 30 -11q15 -11 21 -24q6 -19 1 -39q-12 -40 -67 -91l-1 -1q-7 -7 -14.5 -12.5t-14.5 -11.5q13 1 23 -3q14 -6 25.5 -18.5t22.5 -24.5q2 -5 5 -6q22 -25 48 -31q27 -7 46 7
q35 32 33 16q0 -18 -36 -49l-8 -6t-7 -6q-55 -43 -95 -33q-27 5 -51 32q-3 5 -4.5 6.5t-0.5 0.5q-11 12 -22.5 24t-23.5 17q-8 3 -8 9.5t-3 3.5l-12.5 -12.5t-10.5 -9.5q-33 -29 -29 -8q12 36 50 71q19 17 37 32.5t35 29.5q13 8 14 12h2q0 2 -2.5 0.5t-1.5 1.5q4 10 -1 30
q-4 7 -8.5 12.5t-10.5 9.5l-1 1v0z" />
    <glyph glyph-name="uni00B3" unicode="&#xb3;" horiz-adv-x="171" 
d="M1 748q0 14 36 47q14 13 25 18.5t11 -0.5v-4q1 -10 16 -19q18 -6 34 -6q11 0 23 3q18 2 -13 -34l-2 -1l-51 -58q29 2 44 -11q16 -14 20 -37q1 -12 0 -25q-1 -7 -3 -14t-5 -15q-18 -45 -61.5 -97.5t-100.5 -97.5q-14 -12 -21.5 -13t-3.5 9q9 21 44 50q57 48 73 93
q2 4 3.5 9.5t3.5 12.5q1 10 0 20v1q-4 21 -18 35q-21 15 -54 5h-1q-15 -4 13 33l53 61q-2 -1 -8 -1q-24 0 -37 7q-19 8 -20 24v5v0z" />
    <glyph glyph-name="backslash" unicode="\" horiz-adv-x="302" 
d="M17 623q12 25 46 50q13 11 20 11t2 -10l-1 -1q-32 -66 3 -177q17 -56 38.5 -114t46.5 -120q22 -55 41.5 -109t37.5 -108q37 -105 28 -192q-3 -19 -37 -48q-15 -13 -25.5 -17.5t-8.5 1.5q7 82 -29 190q-17 54 -37 107t-42 107q-49 123 -84 239q-34 113 1 189v2v0z" />
    <glyph glyph-name="four" unicode="4" horiz-adv-x="479" 
d="M237 299q1 13 37 49q35 29 35 15q-7 -92 -21 -172q40 -5 82 -22.5t81 -53.5q6 -7 -26 -43q-15 -15 -27.5 -23t-15.5 -4q-50 45 -109 65q-7 -27 -14.5 -53t-16.5 -51q-30 -82 -82 -160t-133 -159q-35 -34 -40 -26q-6 9 27 44q57 57 95 117t63 129q15 39 25 81t19 88
q-70 6 -125 -15q-53 -20 -79 -33l-4 -2q-15 -8 -8 11l169 300q15 27 47 50q34 23 17 -5l-157 -280q24 12 63 26t87 20q3 24 5.5 51t5.5 56z" />
    <glyph glyph-name="degree" unicode="&#xb0;" horiz-adv-x="381" 
d="M360 596q0 1 2 -7q0 -5 1 -6v-21t-1 -14q0 -1 -1 -1q-1 -15 -8 -35q-10 -23 -18 -38q-39 -61 -93.5 -99.5t-111.5 -38.5h-1q-5 0 -9.5 0.5t-9.5 0.5q-51 8 -79 42q-31 37 -31 85q0 3 0.5 8t1.5 12h-1l1 2q5 25 9 35q5 16 18 37q18 30 42 55.5t50.5 44t55 28.5t57.5 10
q5 0 12 -0.5t16 -1.5q4 -1 10 -3t14 -5q60 -25 74 -90zM289 529q-14 63 -72 87q-3 1 -8.5 2.5t-13.5 3.5q-10 2 -26 2q-63 0 -78 -25q-2 -2 -4 -7.5t-6 -13.5q-5 -12 -7 -29v-1q-1 -6 -1.5 -10.5t-0.5 -8.5q0 -47 30 -80q28 -35 75 -39q5 -1 9.5 -1.5t8.5 -0.5q62 0 78 25
q2 5 4.5 10.5t5.5 12.5q2 4 3.5 11t3.5 17h1q1 16 0 32q0 5 -1 7q-1 0 -1 1v4v1z" />
    <glyph glyph-name="f" unicode="f" horiz-adv-x="434" 
d="M383 623q7 -8 -28 -43t-43 -27q-6 6 -8 7q-3 1 -5 3l-4 4q-25 16 -56 16q-37 0 -56 -51q-10 -25 -17 -47t-12 -42l-3 -10v-2q-6 -17 -10.5 -34t-9.5 -33q8 6 16.5 13t17.5 14q16 11 25 15q58 33 133 33q32 0 60 -17q6 -4 8.5 -6t1.5 -1q2 -3 4 -4.5t5 -3.5q6 -9 -28 -43
q-36 -36 -42 -27q-2 2 -4 3.5t-5 3.5q-3 1 -5 3l-4 4q-25 16 -57 16q-66 0 -113 -26q-4 -2 -6.5 -3.5t-4.5 -2.5q-5 -4 -10 -12.5t-12 -21.5q-11 -32 -20.5 -59.5t-19.5 -49.5q6 3 11 8q55 48 131 48q23 0 52 -9q46 -17 75 -53q30 -42 30 -90q0 -24 -11 -59q-7 -22 -42 -49
q-36 -28 -28 -8q9 27 9 50q0 47 -29 87q-29 38 -71 51q-24 9 -49 9q-59 0 -77 -15q-1 -1 -10.5 -16.5t-26.5 -46.5q-6 -11 -10 -16q-10 -21 -19.5 -41t-21.5 -39q-103 -192 -286 -392q-32 -35 -47 -35t18 37q78 85 140 170.5t110 173.5q37 66 66 137t56 149v1l1 2
q10 28 19 59.5t18 66.5l1 1l3 10q19 74 65 174q45 98 156 98q32 0 60 -17l6 -4.5t3 -2.5q2 -1 9 -8h1v0z" />
    <glyph glyph-name="less" unicode="&#x3c;" horiz-adv-x="564" 
d="M531 158q7 -7 -27 -43q-36 -34 -43 -27q-24 22 -59 48q-14 10 -30.5 20t-34.5 21q-44 24 -89 42.5t-88.5 32t-84.5 22.5t-75 14q-14 2 21 38q24 27 42 33q131 43 241 90q57 25 103.5 51t84.5 53q32 23 18 -4q-16 -28 -47 -50q-45 -32 -97.5 -62t-114.5 -56
q-23 -11 -47 -20.5t-48 -18.5q58 -15 122.5 -38t127.5 -57q22 -13 65 -41q31 -21 60 -48z" />
    <glyph glyph-name="greater" unicode="&#x3e;" horiz-adv-x="569" 
d="M0 491q-6 8 27 43q35 35 43 27q28 -26 60 -48q13 -10 29 -20t36 -21q43 -24 88 -43t88.5 -33t84 -23t75.5 -13q12 -3 -20 -38q-27 -29 -42 -33v-1q-67 -22 -127 -44t-114 -45q-55 -24 -102 -49.5t-86 -53.5q-32 -24 -18 3q15 28 47 51q88 62 212 117q20 8 43.5 18
t51.5 21q-60 13 -124.5 36.5t-125.5 58.5q-37 21 -65 41q-38 25 -61 49z" />
    <glyph glyph-name="copyright" unicode="&#xa9;" horiz-adv-x="706" 
d="M431 235q33 28 33 16q1 -13 -34 -47l-6 -6q-8 -6 -13.5 -10.5t-9.5 -7.5q-5 -4 -10.5 -7.5t-11.5 -6.5q-52 -28 -94 -28q-4 0 -9 0.5t-12 1.5q-53 8 -82 44q-32 34 -32 87q0 5 0.5 10.5t0.5 11.5v1q2 9 4 17.5t6 17.5q2 8 7 18t12 21q19 31 43 57.5t51.5 45t56.5 29
t59 10.5h1q30 0 56 -12q3 -2 9 -3q22 -14 36 -30q7 -9 -28 -43q-35 -35 -42 -27q-14 17 -35 28q1 -1 -8 5q-21 10 -54 10q-67 0 -83 -28q-7 -8 -11 -24q-4 -8 -5.5 -15t-2.5 -14v-1v-1q-1 -3 -1 -18q0 -49 30 -85q29 -33 79 -41q4 0 8.5 -0.5t10.5 -0.5q43 0 72 19q9 6 8 5
l1 1v0zM371 661q122 0 214 -89q88 -88 88 -215q0 -69 -31 -133.5t-85 -118.5q-116 -116 -252 -116h-1q-127 0 -215 88q-87 87 -89 214q0 69 31.5 134t85.5 119t119 85.5t134 31.5h1v0zM515 502q-87 87 -210 87q-113 0 -173 -60t-60 -172q0 -125 87 -210q87 -87 210 -87h1
q112 0 171 60q61 57 61 171q0 61 -24 115t-63 96z" />
    <glyph glyph-name="dieresis" unicode="&#xa8;" horiz-adv-x="405" 
d="M71 548q-8 7 28 43q35 34 43 26l47 -60q6 -8 -29 -43t-42 -27l-47 61v0zM264 548q-8 7 28 43q34 34 42 26l47 -60q5 -8 -28 -43q-38 -35 -42 -27l-47 61v0z" />
    <glyph glyph-name="quotedbl" unicode="&#x22;" horiz-adv-x="226" 
d="M117 632q-9 12 28 48q37 37 46 28q20 -29 26 -56q1 -4 1 -20q0 -32 -20 -67.5t-57 -72.5q-16 -15 -29 -23.5t-18 -3.5q-10 10 27 48q18 20 18 55v9t-1 7q-2 14 -7.5 25.5t-13.5 23.5v-1zM-25 633q-3 4 6.5 18.5t23.5 31.5q35 33 43 25q19 -28 27 -56v-11q0 -2 0.5 -4.5
t0.5 -4.5q-1 -34 -20.5 -68.5t-55.5 -71.5t-47 -27q-10 12 26 48q18 18 18 55v17q-5 25 -22 48z" />
    <glyph glyph-name="h" unicode="h" horiz-adv-x="517" 
d="M-182 -26q-20 -5 10 30q31 34 50 40l1 1q7 2 17 5t23 8q9 4 18 9t17 10q60 38 91 119v2q1 2 2 6t3 10l1 1q7 20 13.5 40t12.5 41q15 48 24 81l3 9q19 77 65 176q45 98 156 98q21 0 43 -8q6 -3 7 -3q18 -12 29 -21q7 -9 -28 -43q-34 -34 -42 -28q-5 5 -12.5 10.5
t-15.5 10.5q-2 0 -3 0.5t-2 0.5t-1 1q-21 8 -40 8q-37 0 -56 -51q-20 -50 -30 -90l-2 -10q-7 -24 -13 -45t-11 -38l-2 -6t-2 -5q48 46 99.5 73.5t99.5 27.5q21 0 41 -6q42 -13 67 -49q24 -38 24 -88q0 -31 -10 -67q-51 -175 -153 -326q-51 -76 -109.5 -148t-124.5 -144
q-35 -35 -48 -35q-6 0 -0.5 11t19.5 25q57 63 108 125.5t96 128.5q45 69 81 142.5t61 161.5q9 30 9 61q0 47 -23 84q-26 36 -65 47q-17 5 -38 5q-84 0 -130 -58q-2 -4 -6.5 -10t-10.5 -15q-4 -7 -8 -16t-8 -20q-56 -146 -201 -236q-20 -15 -49 -26q-11 -5 -22.5 -9t-23.5 -8
h-1v0z" />
    <glyph glyph-name="u10335" unicode="&#x10335;" horiz-adv-x="450" 
d="M390 378q4 18 41 50q34 28 30 10q-21 -78 -44 -150t-51 -138q-2 -2 -3 -5v-2l-2 -2v-1q-30 -70 -64 -131q-55 -102 -126 -198t-164 -196q-34 -35 -46 -34q-15 2 20 37q78 87 139.5 170.5t110.5 174.5q4 9 9 16.5t9 16.5q-34 -25 -82 -30h-1q-17 -1 -33.5 0t-31.5 5
q-43 15 -70 51q-26 34 -30 87q-1 23 1.5 48.5t11.5 52.5q11 40 53 97q40 55 90 96q23 18 41 28q15 9 30 12q1 0 2 1q17 3 -12 -32q-33 -36 -50 -39q0 -1 -1 -1q-1 -1 -16 -6q-3 -2 -5.5 -4t-4.5 -3q-41 -33 -57 -91q-8 -25 -10.5 -48.5t-0.5 -45.5q5 -53 29 -83
q24 -36 67 -49q31 -9 61 -6q13 1 23.5 7.5t18.5 14t13 15.5t8 14q28 64 52 136.5t45 154.5z" />
    <glyph glyph-name="u10335" unicode="Q" horiz-adv-x="450" 
d="M390 378q4 18 41 50q34 28 30 10q-21 -78 -44 -150t-51 -138q-2 -2 -3 -5v-2l-2 -2v-1q-30 -70 -64 -131q-55 -102 -126 -198t-164 -196q-34 -35 -46 -34q-15 2 20 37q78 87 139.5 170.5t110.5 174.5q4 9 9 16.5t9 16.5q-34 -25 -82 -30h-1q-17 -1 -33.5 0t-31.5 5
q-43 15 -70 51q-26 34 -30 87q-1 23 1.5 48.5t11.5 52.5q11 40 53 97q40 55 90 96q23 18 41 28q15 9 30 12q1 0 2 1q17 3 -12 -32q-33 -36 -50 -39q0 -1 -1 -1q-1 -1 -16 -6q-3 -2 -5.5 -4t-4.5 -3q-41 -33 -57 -91q-8 -25 -10.5 -48.5t-0.5 -45.5q5 -53 29 -83
q24 -36 67 -49q31 -9 61 -6q13 1 23.5 7.5t18.5 14t13 15.5t8 14q28 64 52 136.5t45 154.5z" />
    <glyph glyph-name="u10341" unicode="&#x10341;" horiz-adv-x="486" 
d="M390 373q5 20 41 50q14 12 23 15t7 -5q-15 -53 -30 -100.5t-31 -92.5q-8 -25 -17 -47.5t-17 -43.5q0 -5 -3 -9l-1 -2q0 -2 -1 -2q-2 -7 -3 -8q-10 -25 -21 -51t-23 -55q-8 -17 -25.5 -52t-41.5 -80q-31 -54 -71 -111.5t-88 -105.5q-26 -26 -51.5 -46.5t-50.5 -33
t-48 -15.5t-44 6q-5 1 -11 5q-17 9 -27 28q-9 22 -5 44q7 39 51 81q51 51 105 61q17 6 -11 -31q-32 -35 -49 -39q-8 -2 -13.5 -3t-9.5 -2t-7 -2q-3 -3 1.5 0t3.5 -3q-2 -21 5 -37q11 -17 25 -27q3 -2 5 -3l4 -2q56 -23 110 33q29 30 58 73t53 85q23 42 39.5 75t23.5 49
q3 8 6 14.5t6 13.5q-42 -32 -91 -36q-30 -3 -65 5q-43 15 -70 51q-26 34 -30 87q-1 55 12 101q13 41 54 97q40 55 90 96q23 18 41 28q15 9 30 12l1 1q18 3 -11 -32q-14 -15 -28 -26.5t-22 -12.5l-1 -1q-8 -1 -16 -6q-6 -3 -10 -7q-41 -32 -57 -91q-8 -25 -10.5 -48.5
t-0.5 -45.5q3 -48 29 -83q24 -36 67 -49q27 -7 61 -6q24 2 39 18t21 29q11 27 21 53.5t19 52.5q34 94 60 189z" />
    <glyph glyph-name="u10341" unicode="&#xb1;" horiz-adv-x="486" 
d="M390 373q5 20 41 50q14 12 23 15t7 -5q-15 -53 -30 -100.5t-31 -92.5q-8 -25 -17 -47.5t-17 -43.5q0 -5 -3 -9l-1 -2q0 -2 -1 -2q-2 -7 -3 -8q-10 -25 -21 -51t-23 -55q-8 -17 -25.5 -52t-41.5 -80q-31 -54 -71 -111.5t-88 -105.5q-26 -26 -51.5 -46.5t-50.5 -33
t-48 -15.5t-44 6q-5 1 -11 5q-17 9 -27 28q-9 22 -5 44q7 39 51 81q51 51 105 61q17 6 -11 -31q-32 -35 -49 -39q-8 -2 -13.5 -3t-9.5 -2t-7 -2q-3 -3 1.5 0t3.5 -3q-2 -21 5 -37q11 -17 25 -27q3 -2 5 -3l4 -2q56 -23 110 33q29 30 58 73t53 85q23 42 39.5 75t23.5 49
q3 8 6 14.5t6 13.5q-42 -32 -91 -36q-30 -3 -65 5q-43 15 -70 51q-26 34 -30 87q-1 55 12 101q13 41 54 97q40 55 90 96q23 18 41 28q15 9 30 12l1 1q18 3 -11 -32q-14 -15 -28 -26.5t-22 -12.5l-1 -1q-8 -1 -16 -6q-6 -3 -10 -7q-41 -32 -57 -91q-8 -25 -10.5 -48.5
t-0.5 -45.5q3 -48 29 -83q24 -36 67 -49q27 -7 61 -6q24 2 39 18t21 29q11 27 21 53.5t19 52.5q34 94 60 189z" />
    <glyph glyph-name="ampersand" unicode="&#x26;" horiz-adv-x="743" 
d="M89 293q4 3 8 3l3 -1h2q25 -3 72 -6q21 -1 43 -2t43 -1q59 -2 119 -2.5t123 0.5q125 3 191 12q15 0 -15 -34q-32 -36 -49 -38q-39 -6 -99 -9t-129 -3q0 -23 6.5 -44t14.5 -40q13 -29 13 -49q0 -56 -43 -84q-44 -29 -169 -29q-50 0 -92 13q-63 19 -96 63q-35 44 -35 104
q0 35 12 71q13 43 36.5 83.5t55 76t69 65t79.5 50.5q25 13 54 23q40 13 79 13q67 0 113 -38q3 -5 7.5 -9t8.5 -8q2 -3 5.5 -7.5t7.5 -10.5h1q4 -10 -30 -44q-34 -36 -42 -25q-4 7 -13 18q-2 2 -5.5 6t-8.5 9q-43 37 -109 37q-37 0 -73 -12q-19 -5 -44 -18q-78 -40 -114 -133
zM107 218q-6 0 -14.5 0.5t-19.5 1.5q-1 -2 -1 -9q0 -57 33 -99q34 -46 94 -62q36 -13 89 -13q44 0 61 -17q16 -16 16 -6q-1 13 -14 46q-12 31 -21 67q-8 39 16 85q-38 0 -76.5 0.5t-74.5 1.5q-25 0 -47 1t-41 3z" />
    <glyph glyph-name="endash" unicode="&#x2013;" horiz-adv-x="602" 
d="M0 228q-15 2 20 37q32 36 47 35h4q16 -3 32.5 -4t34.5 -3q18 -1 36.5 -2t36.5 -1q94 -4 185.5 -1.5t160.5 11.5q17 2 -15 -34q-13 -15 -27.5 -26t-20.5 -11q-68 -9 -162 -12q-48 -2 -94 -1.5t-93 2.5q-20 0 -38.5 1.5t-34.5 2.5q-20 2 -37 3t-31 3h-4v0z" />
    <glyph glyph-name="quotedblbase" unicode="&#x201e;" horiz-adv-x="226" 
d="M117 16q-8 11 28 47q38 38 46 29q21 -32 26 -57q1 -3 1 -19q0 -63 -77 -140q-38 -35 -47 -25v-1q-11 10 27 47q8 11 13 24.5t5 31.5v8t-1 7q-2 14 -7.5 25.5t-13.5 21.5v1zM-25 16q-6 10 27 47q37 37 46 29q20 -31 27 -57v-10q0 -2 0.5 -4.5t0.5 -4.5q-1 -32 -20.5 -66.5
t-55.5 -73.5q-39 -37 -48 -26q-10 10 27 47q18 19 18 56v15q-2 14 -7 25.5t-15 21.5v1z" />
    <glyph glyph-name="quotedblleft" unicode="&#x201c;" horiz-adv-x="284" 
d="M142 588q6 36 34 70l1 2q27 35 49 46q35 13 6 -27q-8 -11 -11 -30q0 -2 -0.5 -3.5t-0.5 -2.5q-1 -5 -1 -11q0 -46 46 -92q10 -11 -27 -48q-36 -36 -48 -27q-48 48 -50 103v5t1 8q0 2 0.5 3.5t0.5 3.5zM0 588q5 33 34 71q10 15 26.5 28.5t27.5 19.5q31 12 0 -32
q-6 -6 -9 -27q0 -2 -0.5 -3t-0.5 -2q-1 -5 -1 -11q1 -23 12 -46t34 -46q5 -5 -3.5 -18t-24.5 -30q-17 -19 -29.5 -25.5t-17.5 -1.5q-48 47 -50 103v5t1 8q0 2 0.5 3.5t0.5 3.5zM36 662q-2 -2 -2 -3v1z" />
    <glyph glyph-name="quotedblright" unicode="&#x201d;" horiz-adv-x="226" 
d="M117 632q-9 12 28 48q37 37 46 28q20 -29 26 -56q1 -4 1 -20q0 -32 -20 -67.5t-57 -72.5q-16 -15 -29 -23.5t-18 -3.5q-10 10 27 48q18 20 18 55v9t-1 7q-2 14 -7.5 25.5t-13.5 23.5v-1zM-25 633q-3 4 6.5 18.5t23.5 31.5q35 33 43 25q19 -28 27 -56v-11q0 -2 0.5 -4.5
t0.5 -4.5q-1 -34 -20.5 -68.5t-55.5 -71.5t-47 -27q-10 12 26 48q18 18 18 55v17q-5 25 -22 48z" />
    <glyph glyph-name="bar" unicode="|" horiz-adv-x="390" 
d="M295 643q4 21 42 51q36 28 28 8l-320 -960q-11 -24 -43 -50q-13 -12 -21.5 -14.5t-5.5 6.5l320 959v0z" />
    <glyph glyph-name="uni0308" unicode="&#x308;" horiz-adv-x="405" 
d="M71 548q-8 7 28 43q35 34 43 26l47 -60q6 -8 -29 -43t-42 -27l-47 61v0zM264 548q-8 7 28 43q34 34 42 26l47 -60q5 -8 -28 -43q-38 -35 -42 -27l-47 61v0z" />
    <glyph glyph-name="bullet" unicode="&#x2022;" horiz-adv-x="277" 
d="M139 239q-20 0 -37.5 7.5t-31 21t-21 31t-7.5 37.5q0 19 7.5 36.5t21 31t31 21t37.5 7.5q19 0 36.5 -7.5t30.5 -21t20.5 -31t7.5 -36.5q0 -20 -7.5 -37.5t-20.5 -31t-30.5 -21t-36.5 -7.5z" />
    <glyph glyph-name="u1034A" unicode="&#x1034a;" horiz-adv-x="301" 
d="M152 534q-24 -233 -117 -440q-57 -127 -139.5 -246t-191.5 -237q-32 -35 -48 -35q-14 0 19 37q94 103 167 208t125 220q105 236 120 514l-51 -51q-34 -35 -41 -27q-9 7 26 42l108 108q34 34 43 28l108 -108q7 -10 -28 -43q-35 -38 -42 -27l-58 57v0z" />
    <glyph glyph-name="u1034A" unicode="&#xa6;" horiz-adv-x="301" 
d="M152 534q-24 -233 -117 -440q-57 -127 -139.5 -246t-191.5 -237q-32 -35 -48 -35q-14 0 19 37q94 103 167 208t125 220q105 236 120 514l-51 -51q-34 -35 -41 -27q-9 7 26 42l108 108q34 34 43 28l108 -108q7 -10 -28 -43q-35 -38 -42 -27l-58 57v0z" />
    <glyph glyph-name="quoteright" unicode="&#x2019;" horiz-adv-x="100" 
d="M-3 633q-7 11 29 47q37 37 46 28q11 -17 17 -30.5t8 -26.5q0 -2 0.5 -2t0.5 -2q1 -3 1 -8v-7q0 -32 -20 -67.5t-57 -72.5q-13 -11 -26.5 -22t-18.5 -7q-9 12 24 50q19 19 20 55q0 5 -1 10q0 2 -0.5 3.5t-0.5 3.5q-2 13 -8 24.5t-14 23.5z" />
    <glyph glyph-name="u10337" unicode="&#x10337;" horiz-adv-x="517" 
d="M-182 -26q-20 -5 10 30q31 34 50 40l1 1q7 2 17 5t23 8q9 4 18 9t17 10q60 38 91 119v2q1 2 2 6t3 10l1 1q7 20 13.5 40t12.5 41q15 48 24 81l3 9q19 77 65 176q45 98 156 98q21 0 43 -8q6 -3 7 -3q18 -12 29 -21q7 -9 -28 -43q-34 -34 -42 -28q-5 5 -12.5 10.5
t-15.5 10.5q-2 0 -3 0.5t-2 0.5t-1 1q-21 8 -40 8q-37 0 -56 -51q-20 -50 -30 -90l-2 -10q-7 -24 -13 -45t-11 -38l-2 -6t-2 -5q48 46 99.5 73.5t99.5 27.5q21 0 41 -6q42 -13 67 -49q24 -38 24 -88q0 -31 -10 -67q-51 -175 -153 -326q-51 -76 -109.5 -148t-124.5 -144
q-35 -35 -48 -35q-6 0 -0.5 11t19.5 25q57 63 108 125.5t96 128.5q45 69 81 142.5t61 161.5q9 30 9 61q0 47 -23 84q-26 36 -65 47q-17 5 -38 5q-84 0 -130 -58q-2 -4 -6.5 -10t-10.5 -15q-4 -7 -8 -16t-8 -20q-56 -146 -201 -236q-20 -15 -49 -26q-11 -5 -22.5 -9t-23.5 -8
h-1v0z" />
    <glyph glyph-name="u10337" unicode="H" horiz-adv-x="517" 
d="M-182 -26q-20 -5 10 30q31 34 50 40l1 1q7 2 17 5t23 8q9 4 18 9t17 10q60 38 91 119v2q1 2 2 6t3 10l1 1q7 20 13.5 40t12.5 41q15 48 24 81l3 9q19 77 65 176q45 98 156 98q21 0 43 -8q6 -3 7 -3q18 -12 29 -21q7 -9 -28 -43q-34 -34 -42 -28q-5 5 -12.5 10.5
t-15.5 10.5q-2 0 -3 0.5t-2 0.5t-1 1q-21 8 -40 8q-37 0 -56 -51q-20 -50 -30 -90l-2 -10q-7 -24 -13 -45t-11 -38l-2 -6t-2 -5q48 46 99.5 73.5t99.5 27.5q21 0 41 -6q42 -13 67 -49q24 -38 24 -88q0 -31 -10 -67q-51 -175 -153 -326q-51 -76 -109.5 -148t-124.5 -144
q-35 -35 -48 -35q-6 0 -0.5 11t19.5 25q57 63 108 125.5t96 128.5q45 69 81 142.5t61 161.5q9 30 9 61q0 47 -23 84q-26 36 -65 47q-17 5 -38 5q-84 0 -130 -58q-2 -4 -6.5 -10t-10.5 -15q-4 -7 -8 -16t-8 -20q-56 -146 -201 -236q-20 -15 -49 -26q-11 -5 -22.5 -9t-23.5 -8
h-1v0z" />
    <glyph glyph-name="at" unicode="@" horiz-adv-x="949" 
d="M305 398q-31 -26 -35 -21q-4 3 4 15.5t23 27.5q5 5 11 10.5t14 12.5q7 5 12 9t8 6h1q35 22 71 22h1q14 0 35 -8q-1 1 8 -5q23 -14 34 -32q24 -42 35 -82t18 -79q8 -42 19 -82.5t39 -76.5q7 -7 8 -10q7 -7 10 -8q28 -25 57 -25q40 0 78 12q7 4 10 5t1 0q6 2 7 -0.5t4 0.5
q37 44 44 113q7 81 -27 166q-37 85 -106 146q-86 77 -192 89h-1q-46 4 -88 0q-25 -4 -46 -8.5t-40 -11.5q-91 -32 -157 -107q-68 -77 -86 -180q-15 -85 1.5 -158.5t58.5 -130.5q22 -30 49 -55.5t61 -45.5l11 -7q13 22 31 59q18 39 18.5 69.5t-0.5 61.5q-3 23 -3 47.5t7 55.5
q4 22 25 50.5t49 53.5q10 10 25 21q7 6 18 12h1l1 1q1 1 2.5 1.5t3.5 2.5l-8 16l-8 16q-11 18 -32 31q3 0 -9 3q-18 8 -32 8h-1q-24 0 -43 -10zM474 207q-4 16 -7.5 32t-7.5 34h-2q-10 2 -11 2q-3 0 -6 0.5t-5 0.5q-24 1 -48 -10q1 1 -3 -14q-6 -28 -6 -51.5t2 -45.5
q3 -33 1.5 -67t-22.5 -79q-17 -35 -35 -66.5t-35 -59.5q49 -22 102 -31q75 -13 155.5 2.5t152.5 66.5q32 23 18 -5q-16 -26 -49 -51q-87 -60 -175 -79.5t-169 -5.5q-23 4 -45 10.5t-44 15.5q-36 -48 -69 -83t-54 -57q-2 -3 -5.5 -6.5l-7.5 -7.5q-35 -35 -46 -35q-6 0 -1 11
t19 25q3 4 20 21q20 21 52 57t68 87q-11 5 -31 17q-69 43 -112 104q-42 60 -58.5 133.5t-2.5 161.5q27 150 131 260q105 111 241 159q52 16 92 21q22 2 44.5 2.5t47.5 -1.5q107 -14 196 -91q69 -62 107 -147q38 -90 28 -172q-12 -92 -83 -172q-47 -55 -99 -74q-4 -2 -7.5 -3
t-6.5 -2q-36 -13 -86 -13q-32 0 -61 26q-9 5 -10 9q-1 2 -8 9q-29 38 -40.5 79t-18.5 83z" />
    <glyph glyph-name="quotesinglbase" unicode="&#x201a;" horiz-adv-x="75" 
d="M-26 16q-6 10 27 47q38 38 47 29q20 -32 26 -57v-10q0 -2 0.5 -4.5t0.5 -4.5q-1 -61 -76 -140q-38 -36 -48 -26q-9 9 27 47q18 19 18 56v16q-2 14 -7 25t-15 21v1z" />
    <glyph glyph-name="quoteleft" unicode="&#x2018;" horiz-adv-x="133" 
d="M-1 588q6 33 34 71q10 15 26.5 28.5t27.5 19.5q31 12 0 -32q-6 -6 -9 -26q0 -2 -0.5 -3.5t-0.5 -2.5q-1 -5 -1 -11q2 -48 46 -92q5 -5 -3.5 -18t-23.5 -30q-17 -19 -30 -25.5t-18 -1.5q-48 48 -50 103v5t1 8q0 2 0.5 3.5t0.5 3.5zM35 662q-2 -2 -2 -3v1z" />
    <glyph glyph-name="Idieresis" unicode="&#xcf;" 
d="M174 431q33 28 28 7q-9 -24 -43 -49l-3 -3q-2 -2 -4.5 -4t-4.5 -4l-9 -9q-38 -41 -54 -99q-12 -39 -12 -73q0 -56 28 -97q29 -43 77 -56q29 -8 54 -8q51 0 104 25q6 1 15 7q0 1 2 1q17 10 29.5 19t20.5 19q34 34 43 29q8 -8 -25 -42q-54 -56 -114 -90q-2 0 -3 -1
q-6 -3 -10.5 -4.5t-9.5 -4.5q-60 -28 -117 -28q-27 0 -56 8q-53 17 -80 57q-30 42 -30 102q0 40 13 78q25 80 94 157q8 8 16.5 17t17.5 17q14 14 31 28l2 1v0zM71 548q-8 7 28 43q35 34 43 26l47 -60q6 -8 -29 -43t-42 -27l-47 61v0zM264 548q-8 7 28 43q34 34 42 26l47 -60
q5 -8 -28 -43q-38 -35 -42 -27l-47 61v0z" />
    <glyph glyph-name="idieresis" unicode="&#xef;" 
d="M174 431q33 28 28 7q-9 -24 -43 -49l-3 -3q-2 -2 -4.5 -4t-4.5 -4l-9 -9q-38 -41 -54 -99q-12 -39 -12 -73q0 -56 28 -97q29 -43 77 -56q29 -8 54 -8q51 0 104 25q6 1 15 7q0 1 2 1q17 10 29.5 19t20.5 19q34 34 43 29q8 -8 -25 -42q-54 -56 -114 -90q-2 0 -3 -1
q-6 -3 -10.5 -4.5t-9.5 -4.5q-60 -28 -117 -28q-27 0 -56 8q-53 17 -80 57q-30 42 -30 102q0 40 13 78q25 80 94 157q8 8 16.5 17t17.5 17q14 14 31 28l2 1v0zM71 548q-8 7 28 43q35 34 43 26l47 -60q6 -8 -29 -43t-42 -27l-47 61v0zM264 548q-8 7 28 43q34 34 42 26l47 -60
q5 -8 -28 -43q-38 -35 -42 -27l-47 61v0z" />
    <glyph glyph-name="Makron" unicode="&#x304;" horiz-adv-x="592" 
d="M0 656q-11 4 20 38q32 35 47 34h4q16 -3 32.5 -4t34.5 -2q18 -2 36.5 -3t36.5 -1q94 -4 185.5 -1.5t160.5 11.5q7 1 2.5 -9t-17.5 -25q-31 -35 -48 -37q-68 -9 -162 -12q-48 -1 -94 -0.5t-93 2.5q-20 0 -38.5 1t-34.5 2q-20 2 -37 3t-31 3h-4v0z" />
    <glyph glyph-name="guillemotleft" unicode="&#xab;" horiz-adv-x="284" 
d="M142 588q6 36 34 70l1 2q27 35 49 46q35 13 6 -27q-8 -11 -11 -30q0 -2 -0.5 -3.5t-0.5 -2.5q-1 -5 -1 -11q0 -46 46 -92q10 -11 -27 -48q-36 -36 -48 -27q-48 48 -50 103v5t1 8q0 2 0.5 3.5t0.5 3.5zM0 588q5 33 34 71q10 15 26.5 28.5t27.5 19.5q31 12 0 -32
q-6 -6 -9 -27q0 -2 -0.5 -3t-0.5 -2q-1 -5 -1 -11q1 -23 12 -46t34 -46q5 -5 -3.5 -18t-24.5 -30q-17 -19 -29.5 -25.5t-17.5 -1.5q-48 47 -50 103v5t1 8q0 2 0.5 3.5t0.5 3.5zM36 662q-2 -2 -2 -3v1z" />
    <glyph glyph-name="u10345" unicode="&#x10345;" horiz-adv-x="423" 
d="M718 623q7 -8 -28 -43t-42 -27q-3 1 -5 3l-4 4q-3 1 -5 3l-4 4q-23 16 -56 16q-39 0 -73.5 -19.5t-64.5 -52t-56.5 -75.5t-49.5 -90t-42.5 -95.5t-35.5 -92.5q-15 -40 -29 -75t-27 -62q-64 -134 -151 -236q-88 -103 -137 -155q-6 -6 -10.5 -11t-7.5 -8q-32 -35 -47 -35
t18 37l23 23q20 22 49 54t67 77q37 45 69 95t60 108q20 48 33 98t16 99q3 48 -7.5 96t-40.5 94q-11 16 -22 28q-45 45 -108 46q-58 1 -105 -29q-4 -2 -7 -4t-5 -4q-34 -37 -43 -28q-6 7 27 43q19 17 35 30.5t30 21.5q65 44 133 42q69 -5 112 -48l12 -14t11 -15
q45 -72 50 -157q62 143 155 265q93 121 234 121q32 0 60 -17q4 -3 10 -7q2 -1 9 -8z" />
    <glyph glyph-name="u10345" unicode="W" horiz-adv-x="423" 
d="M718 623q7 -8 -28 -43t-42 -27q-3 1 -5 3l-4 4q-3 1 -5 3l-4 4q-23 16 -56 16q-39 0 -73.5 -19.5t-64.5 -52t-56.5 -75.5t-49.5 -90t-42.5 -95.5t-35.5 -92.5q-15 -40 -29 -75t-27 -62q-64 -134 -151 -236q-88 -103 -137 -155q-6 -6 -10.5 -11t-7.5 -8q-32 -35 -47 -35
t18 37l23 23q20 22 49 54t67 77q37 45 69 95t60 108q20 48 33 98t16 99q3 48 -7.5 96t-40.5 94q-11 16 -22 28q-45 45 -108 46q-58 1 -105 -29q-4 -2 -7 -4t-5 -4q-34 -37 -43 -28q-6 7 27 43q19 17 35 30.5t30 21.5q65 44 133 42q69 -5 112 -48l12 -14t11 -15
q45 -72 50 -157q62 143 155 265q93 121 234 121q32 0 60 -17q4 -3 10 -7q2 -1 9 -8z" />
    <glyph glyph-name="w" unicode="w" horiz-adv-x="423" 
d="M718 623q7 -8 -28 -43t-42 -27q-3 1 -5 3l-4 4q-3 1 -5 3l-4 4q-23 16 -56 16q-39 0 -73.5 -19.5t-64.5 -52t-56.5 -75.5t-49.5 -90t-42.5 -95.5t-35.5 -92.5q-15 -40 -29 -75t-27 -62q-64 -134 -151 -236q-88 -103 -137 -155q-6 -6 -10.5 -11t-7.5 -8q-32 -35 -47 -35
t18 37l23 23q20 22 49 54t67 77q37 45 69 95t60 108q20 48 33 98t16 99q3 48 -7.5 96t-40.5 94q-11 16 -22 28q-45 45 -108 46q-58 1 -105 -29q-4 -2 -7 -4t-5 -4q-34 -37 -43 -28q-6 7 27 43q19 17 35 30.5t30 21.5q65 44 133 42q69 -5 112 -48l12 -14t11 -15
q45 -72 50 -157q62 143 155 265q93 121 234 121q32 0 60 -17q4 -3 10 -7q2 -1 9 -8z" />
    <glyph glyph-name="macron" unicode="&#xaf;" horiz-adv-x="592" 
d="M0 656q-11 4 20 38q32 35 47 34h4q16 -3 32.5 -4t34.5 -2q18 -2 36.5 -3t36.5 -1q94 -4 185.5 -1.5t160.5 11.5q7 1 2.5 -9t-17.5 -25q-31 -35 -48 -37q-68 -9 -162 -12q-48 -1 -94 -0.5t-93 2.5q-20 0 -38.5 1t-34.5 2q-20 2 -37 3t-31 3h-4v0z" />
    <glyph glyph-name="underscore" unicode="_" horiz-adv-x="602" 
d="M0 -83q-12 4 20 38q31 36 47 34h4q31 -1 67 -6q18 0 36.5 -1.5t36.5 -2.5q94 -3 185.5 -0.5t160.5 10.5q16 4 -15 -33q-32 -37 -48 -38q-34 -4 -74 -6.5t-88 -3.5q-94 -3 -187 0q-20 1 -38.5 2t-34.5 2q-14 1 -31 2t-37 3h-4v0z" />
    <glyph glyph-name="Makron2" unicode="&#x305;" horiz-adv-x="592" 
d="M0 656q-11 4 20 38q32 35 47 34h4q16 -3 32.5 -4t34.5 -2q18 -2 36.5 -3t36.5 -1q94 -4 185.5 -1.5t160.5 11.5q7 1 2.5 -9t-17.5 -25q-31 -35 -48 -37q-68 -9 -162 -12q-48 -1 -94 -0.5t-93 2.5q-20 0 -38.5 1t-34.5 2q-20 2 -37 3t-31 3h-4v0z" />
    <glyph glyph-name="dollar" unicode="$" horiz-adv-x="512" 
d="M203 -103q-10 -22 -43 -50q-35 -26 -27 -6l47 121q-62 14 -107 50q-46 38 -65 106t10 165q12 37 27 63q15 31 42 66q32 44 70.5 81t83.5 69q87 63 176 88q16 1 -11 -31q-32 -37 -50 -41q-64 -17 -123 -54.5t-95 -85.5q-14 -17 -28 -44q-17 -35 -21 -52q-15 -47 -17 -86
t6.5 -71.5t25 -58t39.5 -44.5q29 -26 68 -39l64 167l-1 1q-46 21 -58 59q-8 25 -1 52q9 36 51 77q52 53 106 62l38 99q3 9 15.5 24t27.5 27q35 29 26 5l-60 -158q8 -2 15 -5.5t14 -7.5q9 -6 10 -7q2 -3 4 -4.5t5 -3.5q8 -8 -27 -43t-43 -27q-6 6 -8 7q-4 0 -4 3l-35 -92
l7 -3q15 -7 33 -17t40 -24q44 -27 44 -67q0 -38 -13 -69t-35.5 -56t-53 -43t-66.5 -30q-38 -12 -80 -12l-23 -60v0zM344 389q-6 0 -11 0.5t-9 0.5q-39 0 -40 -4q-3 -2 0 -1t2 -4q-6 -19 2 -43q6 -18 23 -35zM255 32q59 -11 109 6q37 10 39 63q0 29 -29 52q-30 24 -57 38z
" />
    <glyph glyph-name="paragraph" unicode="&#xae;" horiz-adv-x="486" 
d="M390 373q5 20 41 50q14 12 23 15t7 -5q-15 -53 -30 -100.5t-31 -92.5q-8 -25 -17 -47.5t-17 -43.5q0 -5 -3 -9l-1 -2q0 -2 -1 -2q-2 -7 -3 -8q-10 -25 -21 -51t-23 -55q-8 -17 -25.5 -52t-41.5 -80q-31 -54 -71 -111.5t-88 -105.5q-26 -26 -51.5 -46.5t-50.5 -33
t-48 -15.5t-44 6q-5 1 -11 5q-17 9 -27 28q-9 22 -5 44q7 39 51 81q51 51 105 61q17 6 -11 -31q-32 -35 -49 -39q-8 -2 -13.5 -3t-9.5 -2t-7 -2q-3 -3 1.5 0t3.5 -3q-2 -21 5 -37q11 -17 25 -27q3 -2 5 -3l4 -2q56 -23 110 33q29 30 58 73t53 85q23 42 39.5 75t23.5 49
q3 8 6 14.5t6 13.5q-42 -32 -91 -36q-30 -3 -65 5q-43 15 -70 51q-26 34 -30 87q-1 55 12 101q13 41 54 97q40 55 90 96q23 18 41 28q15 9 30 12l1 1q18 3 -11 -32q-14 -15 -28 -26.5t-22 -12.5l-1 -1q-8 -1 -16 -6q-6 -3 -10 -7q-41 -32 -57 -91q-8 -25 -10.5 -48.5
t-0.5 -45.5q3 -48 29 -83q24 -36 67 -49q27 -7 61 -6q24 2 39 18t21 29q11 27 21 53.5t19 52.5q34 94 60 189z" />
    <glyph glyph-name="Anfangsi" unicode="&#xf62a;" 
d="M174 431q33 28 28 7q-9 -24 -43 -49l-3 -3q-2 -2 -4.5 -4t-4.5 -4l-9 -9q-38 -41 -54 -99q-12 -39 -12 -73q0 -56 28 -97q29 -43 77 -56q29 -8 54 -8q51 0 104 25q6 1 15 7q0 1 2 1q17 10 29.5 19t20.5 19q34 34 43 29q8 -8 -25 -42q-54 -56 -114 -90q-2 0 -3 -1
q-6 -3 -10.5 -4.5t-9.5 -4.5q-60 -28 -117 -28q-27 0 -56 8q-53 17 -80 57q-30 42 -30 102q0 40 13 78q25 80 94 157q8 8 16.5 17t17.5 17q14 14 31 28l2 1v0zM71 548q-8 7 28 43q35 34 43 26l47 -60q6 -8 -29 -43t-42 -27l-47 61v0zM264 548q-8 7 28 43q34 34 42 26l47 -60
q5 -8 -28 -43q-38 -35 -42 -27l-47 61v0z" />
    </font>
</defs>
</svg>
