<?xml version="1.0" encoding="UTF-8" standalone="no"?>
<!-- Created with Inkscape (http://www.inkscape.org/) -->

<svg
   xmlns:dc="http://purl.org/dc/elements/1.1/"
   xmlns:cc="http://creativecommons.org/ns#"
   xmlns:rdf="http://www.w3.org/1999/02/22-rdf-syntax-ns#"
   xmlns:svg="http://www.w3.org/2000/svg"
   xmlns="http://www.w3.org/2000/svg"
   xmlns:sodipodi="http://sodipodi.sourceforge.net/DTD/sodipodi-0.dtd"
   xmlns:inkscape="http://www.inkscape.org/namespaces/inkscape"
   width="1049.4485"
   height="1141.5632"
   id="svg2"
   version="1.1"
   inkscape:version="0.48.4 r9939"
   sodipodi:docname="sunset_shimmer_cutie_mark_shared.svg"
   inkscape:export-filename="C:\Users\Ryan\Downloads\ponystuffs\cutie marks\sunset_shimmer_cutie_mark.png"
   inkscape:export-xdpi="514.58386"
   inkscape:export-ydpi="514.58386">
  <defs
     id="defs4" />
  <sodipodi:namedview
     id="base"
     pagecolor="#ffffff"
     bordercolor="#666666"
     borderopacity="1.0"
     inkscape:pageopacity="0.0"
     inkscape:pageshadow="2"
     inkscape:zoom="0.49497475"
     inkscape:cx="499.71808"
     inkscape:cy="548.94411"
     inkscape:document-units="px"
     inkscape:current-layer="layer3"
     showgrid="false"
     fit-margin-top="0"
     fit-margin-left="0"
     fit-margin-right="0"
     fit-margin-bottom="0"
     inkscape:window-width="1920"
     inkscape:window-height="1017"
     inkscape:window-x="-8"
     inkscape:window-y="-8"
     inkscape:window-maximized="1" />
  <metadata
     id="metadata7">
    <rdf:RDF>
      <cc:Work
         rdf:about="">
        <dc:format>image/svg+xml</dc:format>
        <dc:type
           rdf:resource="http://purl.org/dc/dcmitype/StillImage" />
        <dc:title></dc:title>
      </cc:Work>
    </rdf:RDF>
  </metadata>
  <g
     inkscape:groupmode="layer"
     id="layer2"
     inkscape:label="Sunset Shimmer Cutie Mark"
     style="display:inline"
     transform="translate(-24.34375,64.59375)">
    <g
       inkscape:groupmode="layer"
       id="layer3"
       inkscape:label="Base Yellow"
       style="display:inline">
      <g
         id="g3842">
        <g
           id="g3857">
          <path
             sodipodi:nodetypes="cccc"
             inkscape:connector-curvature="0"
             d="m 420.00617,699.01831 c -15.84399,100.68742 21.87787,161.47792 64.08994,196.34673 80.50709,71.58561 63.47567,98.42218 60.33955,158.74286 C 638.43645,881.89126 516.35739,841.09141 530.71429,705"
             style="fill:#fbfa90;fill-opacity:1;stroke:none"
             id="path3834" />
          <path
             id="path3860"
             style="font-size:medium;font-style:normal;font-variant:normal;font-weight:normal;font-stretch:normal;text-indent:0;text-align:start;text-decoration:none;line-height:normal;letter-spacing:normal;word-spacing:normal;text-transform:none;direction:ltr;block-progression:tb;writing-mode:lr-tb;text-anchor:start;baseline-shift:baseline;color:#000000;fill:#f9e00a;fill-opacity:1;stroke:none;stroke-width:12;marker:none;visibility:visible;display:inline;overflow:visible;enable-background:accumulate;font-family:Sans;-inkscape-font-specification:Sans"
             d="M 414.09375,698.09375 C 397.9648,800.59209 436.78243,864.06828 480.28125,900 c 21.52625,17.78152 42.98047,30.82363 53.875,54.28125 10.89453,23.45762 12.17106,58.89535 -9.88725,122.68775 l 18.32088,-17.7738 c 15.36941,-52.5244 13.65552,-85.83063 2.44137,-109.97645 C 532.35448,921.92368 508.54664,907.79977 487.90625,890.75 446.98093,856.9441 410.37847,798.814 425.9375,699.9375 z"
             inkscape:connector-curvature="0"
             sodipodi:nodetypes="cssccsscc" />
        </g>
        <g
           id="g3837">
          <path
             style="fill:#fbfa90;fill-opacity:1;stroke:none"
             d="m 409.8694,723.66869 28.53681,6.81853 3.53553,-23.48605 -34.59773,-12.12183 z"
             id="path3832"
             inkscape:connector-curvature="0" />
          <path
             style="fill:#fbfa90;fill-opacity:1;stroke:none"
             d="m 418.20315,715.33493 c 13.59692,31.23112 -21.22427,35.80089 -68.4121,40.07884 -45.1477,4.09299 -81.47252,10.94723 -72.50418,81.64454 -89.1435,-80.21881 -85.11574,-148.86066 -20.31272,-176.33101 44.55428,-18.8868 60.69528,-78.9214 1.53344,-99.94669 C 194.73603,538.11709 132.21886,650.89696 36.365492,499.66736 114.59194,510.63308 134.1265,485.13539 159.88556,458.11016 189.40062,427.1443 232.91221,388.20383 331.04468,424.13"
             id="path3803"
             inkscape:connector-curvature="0"
             sodipodi:nodetypes="cscsscsc" />
          <path
             style="font-size:medium;font-style:normal;font-variant:normal;font-weight:normal;font-stretch:normal;text-indent:0;text-align:start;text-decoration:none;line-height:normal;letter-spacing:normal;word-spacing:normal;text-transform:none;direction:ltr;block-progression:tb;writing-mode:lr-tb;text-anchor:start;baseline-shift:baseline;color:#000000;fill:#f9e00a;fill-opacity:1;stroke:none;stroke-width:12;marker:none;visibility:visible;display:inline;overflow:visible;enable-background:accumulate;font-family:Sans;-inkscape-font-specification:Sans"
             d="m 253.53125,403.875 c -13.28888,0.53968 -25.12102,2.86885 -35.71875,6.46875 -28.26062,9.59974 -47.37439,27.9854 -62.28125,43.625 -13.00711,13.64646 -23.6985,25.94582 -40.28125,33.71875 -16.582746,7.77293 -39.650413,11.41583 -78.0625,6.03125 L 24.34375,491.9375 31.3125,502.875 c 24.301749,38.34131 46.78098,60.48811 68.375,72.21875 21.59402,11.73064 42.15314,12.64241 60.84375,9.25 18.69061,-3.39241 35.71247,-10.80141 51.59375,-15.6875 15.88128,-4.88609 30.20311,-7.25524 44.375,-2.21875 27.7208,9.85158 36.08359,27.02333 34.15625,44.46875 -1.92734,17.44542 -15.61763,35.65906 -36.03125,44.3125 -34.01375,14.41861 -53.41659,41.2194 -51.21875,74.28125 2.19784,33.06185 24.63731,71.32258 69.875,112.03125 l 12,10.78125 -2.03125,-16 c -4.35385,-34.32134 2.0763,-50.88788 13.78125,-60.40625 11.70495,-9.51837 30.89448,-12.49888 53.3125,-14.53125 23.65307,-2.14434 44.34447,-4.10403 58.84375,-10.375 18.28061,-7.9064 19.3178,-29.04288 3.5,-33.28125 3.00371,6.8993 2.9613,11.11479 1.6875,14.09375 -1.2738,2.97896 -4.31423,5.71066 -9.96875,8.15625 -11.30904,4.89119 -31.62149,7.33514 -55.15625,9.46875 -22.72968,2.06062 -44.27895,4.54992 -59.78125,17.15625 -13.08783,10.64291 -20.19613,28.26153 -19.34375,55.34375 -36.02549,-35.33412 -53.04693,-67.59968 -54.75,-93.21875 -1.8734,-28.18137 13.14823,-49.41701 43.9375,-62.46875 24.14066,-10.23336 40.78998,-31.48134 43.28125,-54.03125 2.49127,-22.54991 -10.62146,-45.92004 -42.0625,-57.09375 -17.71389,-6.29527 -35.16564,-3.09759 -51.9375,2.0625 -16.77186,5.16009 -33.2957,12.27783 -50.1875,15.34375 -16.8918,3.06592 -33.92043,2.39595 -53,-7.96875 C 88.253186,555.24435 69.313723,537.6445 48.5,507.125 c 32.562527,3.13758 54.84008,-0.59226 71.84375,-8.5625 19.18091,-8.99079 31.12305,-22.93373 43.875,-36.3125 14.6082,-15.32626 32.03044,-31.90083 57.4375,-40.53125 25.40706,-8.63042 59.17228,-9.59282 107.3125,8.03125 l 4.125,-11.25 c -31.24515,-11.43881 -57.41437,-15.52447 -79.5625,-14.625 z"
             id="path3826"
             inkscape:connector-curvature="0"
             sodipodi:nodetypes="sssscccssssssscccssscsssscssssssscsssccs" />
        </g>
        <g
           id="g3851">
          <g
             id="g3811">
            <path
               style="fill:#fbfa90;stroke:none;stroke-width:12;stroke-miterlimit:4;stroke-opacity:1;stroke-dasharray:none;fill-opacity:1"
               d="m 331.10813,422.02087 c -25.65373,-44.05394 -85.18265,-36.86252 -113.75119,-93.7993 -29.52902,-58.85099 15.31648,-139.88061 90.23451,-179.58222 -21.96333,141.18787 60.27158,160.15077 145.21702,139.6925 l 26.10393,57.79227"
               id="path3809"
               inkscape:connector-curvature="0"
               sodipodi:nodetypes="cscc" />
            <path
               sodipodi:nodetypes="cscc"
               inkscape:connector-curvature="0"
               id="path3824"
               d="m 331.10813,422.02087 c -25.65373,-44.05394 -85.18265,-36.86252 -113.75119,-93.7993 -29.52902,-58.85099 15.31648,-139.88061 90.23451,-179.58222 -21.96333,141.18787 60.27158,160.15077 145.21702,139.6925"
               style="fill:none;stroke:#f9e00a;stroke-width:12;stroke-miterlimit:4;stroke-opacity:1;stroke-dasharray:none" />
          </g>
        </g>
        <g
           id="g3838">
          <path
             style="fill:#fbfa90;fill-opacity:1;stroke:none"
             d="M 463.91256,322.63813 417.69808,237.0277 C 413.44049,146.57894 472.38012,151.928 517.19811,133.99214 644.04953,83.227055 609.46041,16.489752 583.3631,-51.875928 L 659.12454,0.65200472 C 698.47074,97.799866 602.8423,213.98261 544.47222,324.91097"
             id="path3822"
             inkscape:connector-curvature="0"
             sodipodi:nodetypes="ccsccc" />
          <path
             style="font-size:medium;font-style:normal;font-variant:normal;font-weight:normal;font-stretch:normal;text-indent:0;text-align:start;text-decoration:none;line-height:normal;letter-spacing:normal;word-spacing:normal;text-transform:none;direction:ltr;block-progression:tb;writing-mode:lr-tb;text-anchor:start;baseline-shift:baseline;color:#000000;fill:#f9e00a;fill-opacity:1;stroke:none;stroke-width:12;marker:none;visibility:visible;display:inline;overflow:visible;enable-background:accumulate;font-family:Sans;-inkscape-font-specification:Sans"
             d="m 564.15625,-64.59375 8.5,14.75 c 18.95428,32.82977 28.33189,58.9209168 30.875,79.65625 2.54311,20.735333 -1.51093,36.0221 -9.75,48.5625 -16.47815,25.0808 -51.66798,39.32571 -87.34375,53.15625 -35.67577,13.83054 -71.99958,27.1442 -88.1875,55.78125 -8.09396,14.31853 -10.43853,32.25351 -4.9375,54.09375 5.87343,23.31876 29.3528,60.17012 42.41899,60.17012 -16.83846,-25.4341 -26.54274,-46.19805 -30.79399,-63.07637 -4.94345,-19.62651 -2.77287,-33.74204 3.75,-45.28125 13.04574,-23.07842 46.40761,-36.66544 82.09375,-50.5 35.68614,-13.83456 73.50852,-28.03515 93.03125,-57.75 9.76137,-14.857426 14.45095,-33.552195 11.625,-56.59375 -2.37592,-19.3721933 -10.28281,-42.130139 -24.1875,-68.84375 20.10698,9.421385 39.0612,21.699901 54.34375,38.125 C 644.832,-11.533793 638.69327,-22.888987 630.335,-32.178 614.67316,-43.529902 597.47152,-51.688823 580.03125,-58.4375 z"
             id="path3810"
             inkscape:connector-curvature="0"
             sodipodi:nodetypes="ccssssscsssssccccc" />
        </g>
      </g>
    </g>
    <g
       inkscape:groupmode="layer"
       id="layer4"
       inkscape:label="Base Red"
       style="display:inline">
      <path
         style="fill:#db1d40;fill-opacity:1;stroke:none"
         d="M 539.14662,334.68074 C 470.87425,116.80993 743.49761,165.64176 630.335,-32.178 c 92.38513,71.282281 94.31418,140.11385 72.02102,177.85186 -16.11371,27.27741 -45.76709,26.28261 -64.70304,44.0308 -11.89098,11.14511 -17.40966,26.90995 -15.90409,48.83827 44.70465,-53.27883 124.20839,-61.56813 213.64727,-42.42641 -71.2019,30.77078 -146.60257,66.30189 -84.97537,114.56566 27.91082,21.85855 44.13602,51.09465 31.43728,87.46485 151.00588,-48.46806 179.46147,24.69284 208.91679,33.17934 25.29684,7.28838 41.10164,12.29057 83.01734,-18.02705 -12.9816,51.67714 -34.6074,101.32174 -100.00515,111.11678 -27.54938,4.12625 -67.17204,-14.51848 -100.4876,-2.96914 -25.94418,8.99394 -24.60059,43.06488 -52.04543,46.4057 93.57815,71.73555 -5.14783,127.59859 22.22335,162.12948 11.17503,14.09817 52.52793,6.2197 94.95434,-16.66751 -22.23004,57.40147 -53.07327,107.37211 -127.24332,88.38835 -49.31631,-12.62247 -68.90095,-87.17732 -158.62985,-63.13454 -58.33708,15.63137 -66.70855,67.12963 -40.91118,126.26906 43.02979,98.64407 -10.13872,171.48 -87.37836,212.132 C 676.80344,829.87517 453.99705,858.86796 505,721.42857"
         id="path3795"
         inkscape:connector-curvature="0"
         sodipodi:nodetypes="ccsscscsscscsccssccc" />
    </g>
    <g
       inkscape:groupmode="layer"
       id="layer5"
       inkscape:label="Core"
       style="display:inline">
      <path
         transform="matrix(0.9969184,0,0,1.0220658,6.7134284,-10.759946)"
         d="m 758.57144,520 c 0,111.24593 -103.93389,201.42857 -232.14285,201.42857 -128.20896,0 -232.14285,-90.18264 -232.14285,-201.42857 0,-111.24593 103.93389,-201.42857 232.14285,-201.42857 128.20896,0 232.14285,90.18264 232.14285,201.42857 z"
         sodipodi:ry="201.42857"
         sodipodi:rx="232.14285"
         sodipodi:cy="520"
         sodipodi:cx="526.42859"
         id="path3783"
         style="fill:#f9e00a;fill-opacity:1;fill-rule:nonzero;stroke:none;opacity:1"
         sodipodi:type="arc" />
      <path
         style="fill:#db1d40;fill-opacity:1;stroke:none;display:inline"
         d="m 564.4971,321.34935 c -124.04113,4.53881 -211.2568,94.5964 -188.30786,158.94858 34.38294,96.41479 219.91305,-15.08324 289.26507,62.85508 -28.09524,-5.55744 -50.21622,-6.29901 -71.1686,-0.29587 C 747.52692,588.42531 645.96389,734.56038 468.93908,719.1124 373.60956,689.8174 267.54921,616.22675 310.71429,452.14286 368.20538,336.85292 477.97995,297.56785 564.4971,321.34935 z"
         id="path3785"
         inkscape:connector-curvature="0"
         sodipodi:nodetypes="csccccc" />
      <path
         sodipodi:type="arc"
         style="fill:none;stroke:#f28217;stroke-width:9.90674019;stroke-miterlimit:4;stroke-opacity:1;stroke-dasharray:none"
         id="path3011"
         sodipodi:cx="526.42859"
         sodipodi:cy="520"
         sodipodi:rx="232.14285"
         sodipodi:ry="201.42857"
         d="m 758.57144,520 c 0,111.24593 -103.93389,201.42857 -232.14285,201.42857 -128.20896,0 -232.14285,-90.18264 -232.14285,-201.42857 0,-111.24593 103.93389,-201.42857 232.14285,-201.42857 128.20896,0 232.14285,90.18264 232.14285,201.42857 z"
         transform="matrix(0.9969184,0,0,1.0220658,6.7134284,-10.759946)" />
    </g>
  </g>
</svg>
